<svg width="25" height="25" viewBox="0 0 25 25" fill="none" xmlns="http://www.w3.org/2000/svg">
<path d="M22.6491 12.844L13.2741 2.42734C12.8793 1.98776 12.121 1.98776 11.7262 2.42734L2.35119 12.844C2.21625 12.9936 2.12767 13.1792 2.09623 13.3781C2.0648 13.5771 2.09185 13.7809 2.1741 13.9648C2.34077 14.3409 2.71369 14.5826 3.12515 14.5826H5.20848V21.8742C5.20848 22.1505 5.31823 22.4154 5.51358 22.6108C5.70893 22.8061 5.97388 22.9159 6.25015 22.9159H9.37514C9.65141 22.9159 9.91636 22.8061 10.1117 22.6108C10.3071 22.4154 10.4168 22.1505 10.4168 21.8742V17.7076H14.5835V21.8742C14.5835 22.1505 14.6932 22.4154 14.8886 22.6108C15.0839 22.8061 15.3489 22.9159 15.6251 22.9159H18.7501C19.0264 22.9159 19.2914 22.8061 19.4867 22.6108C19.6821 22.4154 19.7918 22.1505 19.7918 21.8742V14.5826H21.8751C22.0769 14.5834 22.2745 14.5256 22.4439 14.416C22.6134 14.3065 22.7472 14.1501 22.8293 13.9658C22.9113 13.7815 22.938 13.5773 22.906 13.3781C22.874 13.1789 22.7847 12.9933 22.6491 12.844V12.844Z" fill="white"/>
</svg>
