<svg width="25" height="25" viewBox="0 0 25 25" fill="none" xmlns="http://www.w3.org/2000/svg">
<g clip-path="url(#clip0_308_99)">
<path d="M10.9818 24.9062C8.75212 24.6172 6.45681 23.6609 4.78494 22.3227C1.02087 19.3195 -0.687721 14.575 0.288842 9.86328C0.707592 7.82891 1.79822 5.68828 3.19431 4.14609C4.22274 2.98867 5.46298 2.03854 6.84822 1.34687C8.68728 0.414844 10.4451 -0.00390625 12.5201 -0.00390625C14.0092 -0.00390625 15.206 0.191406 16.5771 0.659375C18.3784 1.27722 20.0148 2.29814 21.3616 3.64432C22.7085 4.9905 23.7302 6.62641 24.349 8.42734C25.0818 10.5758 25.2154 12.8625 24.7474 15.1289C24.3732 16.9195 23.4084 18.9336 22.2209 20.3898C21.7326 20.9922 20.6092 22.0664 20.0193 22.5016C18.2547 23.8121 16.1794 24.6408 13.9974 24.9062C13.3545 24.9875 11.6045 24.9836 10.9826 24.9062H10.9818ZM14.3881 23.8609C17.4336 23.3505 20.1517 21.6511 21.9443 19.1367C24.056 16.1703 24.6217 12.1906 23.4295 8.72031C23.149 7.90625 22.4529 6.54766 21.9443 5.83125C21.3787 5.02969 19.9787 3.62578 19.1732 3.06016C18.392 2.50703 17.0615 1.83516 16.1537 1.53828C14.515 0.993859 12.7749 0.824588 11.0621 1.04298C9.34917 1.26136 7.70725 1.86183 6.25759 2.8C4.89366 3.69595 3.72776 4.86185 2.83181 6.22578C1.89388 7.67466 1.29353 9.31579 1.07514 11.0279C0.856749 12.74 1.0259 14.4793 1.57009 16.1172C1.87087 17.0242 2.54275 18.3594 3.09197 19.1406C3.6615 19.9422 5.0615 21.3461 5.86306 21.9117C6.58337 22.4164 7.93806 23.1117 8.75212 23.3969C10.5641 24.0125 12.4998 24.1719 14.3881 23.8609V23.8609ZM10.0584 19.6695C9.47427 19.5815 8.9139 19.3766 8.41072 19.0672C7.95915 18.7781 4.549 15.4375 4.38259 15.1242C4.19119 14.7664 4.52478 14.1148 5.00134 13.9156L5.22478 13.8219L4.53728 13.1219C4.15915 12.7352 3.80056 12.3242 3.74353 12.2102C3.60915 11.95 3.60525 11.3922 3.73103 11.1438C3.78415 11.0422 3.90994 10.8875 4.00759 10.8016C4.17478 10.6633 4.1904 10.6141 4.17478 10.2641C4.15447 9.95469 4.18259 9.83281 4.31697 9.60078C4.51228 9.26719 4.9154 9.04297 5.30994 9.03906C5.52947 9.03906 5.5865 9.01094 5.68025 8.84766C5.92478 8.42031 6.624 8.26562 7.15759 8.52656L7.44665 8.66484L7.58884 8.52656C7.78415 8.34766 8.17478 8.18906 8.43103 8.18906C8.94353 8.18906 9.66775 8.77891 9.66775 9.19375C9.66775 9.68984 9.21619 9.77578 8.76853 9.36484C8.47165 9.08828 8.32087 9.05937 8.199 9.25469C8.13806 9.34844 8.28415 9.52344 9.15915 10.4062C10.0342 11.2852 10.1927 11.4727 10.1927 11.6391C10.1858 11.7666 10.1315 11.887 10.0405 11.9766C9.94943 12.0662 9.82821 12.1186 9.70056 12.1234C9.54197 12.1234 9.28181 11.8953 8.08103 10.6992C6.85603 9.47812 6.63259 9.28281 6.53494 9.34453C6.27009 9.51172 6.35994 9.63359 7.79197 11.0695C8.56931 11.8508 9.20837 12.5422 9.20837 12.6078C9.20837 12.7422 9.0865 12.9906 8.98494 13.0555C8.90162 13.0921 8.81099 13.1089 8.72009 13.1047C8.5529 13.1086 8.29665 12.8766 6.93415 11.518C5.56697 10.1586 5.32244 9.93906 5.22478 10C4.95603 10.1711 5.04587 10.2891 6.60447 11.8555C7.45525 12.7063 8.16697 13.4672 8.18728 13.5484C8.23181 13.6953 8.13415 13.9516 8.00447 14.0406C7.91841 14.0772 7.82523 14.094 7.73181 14.0898C7.56462 14.0898 7.35369 13.907 6.22634 12.7797C5.13962 11.693 4.88728 11.4695 4.749 11.482C4.35837 11.5266 4.49665 11.7016 6.51462 13.7242C8.26462 15.4781 8.48806 15.7266 8.48806 15.9094C8.48982 15.9765 8.47473 16.043 8.44416 16.1028C8.41359 16.1625 8.36851 16.2137 8.31306 16.2516C7.99978 16.5 7.8779 16.443 7.08806 15.6781C6.68494 15.2914 6.27009 14.9172 6.15994 14.8477C5.96072 14.7258 5.45603 14.6727 5.36228 14.7703C5.32947 14.7984 6.074 15.5844 7.01462 16.5156C8.58103 18.0656 8.75994 18.225 9.22009 18.4445C9.644 18.6556 10.1109 18.7661 10.5844 18.7675C11.058 18.7688 11.5255 18.661 11.9506 18.4523C13.2646 17.8258 13.9935 16.3039 13.6349 14.9242C13.456 14.2367 13.2318 13.907 12.3287 12.975C11.2873 11.9086 11.0467 11.6156 10.7904 11.1031C10.5052 10.5297 10.3834 9.97188 10.3834 9.27578C10.3834 8.52266 10.4607 8.18125 10.7943 7.47734C11.1115 6.80625 11.7748 6.10234 12.4302 5.73984C13.7162 5.02344 15.4092 5.08438 16.6373 5.88672C16.8818 6.04531 17.7646 6.87578 18.8631 7.97813C20.4951 9.61406 20.6818 9.82578 20.6818 10.0125C20.6818 10.4563 20.3193 10.9484 19.917 11.05C19.7662 11.0906 19.7951 11.1313 20.4787 11.8273C20.8771 12.2305 21.2474 12.6656 21.3045 12.8C21.4959 13.2602 21.4099 13.707 21.0599 14.0734C20.881 14.2609 20.8568 14.3258 20.8521 14.7C20.8482 15.0297 20.8115 15.168 20.681 15.3555C20.578 15.508 20.44 15.6337 20.2786 15.7222C20.1171 15.8107 19.9369 15.8593 19.7529 15.8641C19.5006 15.8641 19.4521 15.8883 19.3256 16.0797C19.0404 16.5195 18.2998 16.6734 17.8201 16.3891L17.5802 16.2469L17.4092 16.4141C17.031 16.7766 16.4201 16.825 15.9568 16.5281C15.5826 16.2922 15.306 15.9625 15.306 15.7547C15.306 15.5719 15.5709 15.2703 15.7334 15.2703C15.8881 15.2703 16.0959 15.3922 16.3318 15.6125C16.5677 15.8359 16.7717 15.8359 16.8037 15.6086C16.8201 15.4867 16.6248 15.2547 15.8349 14.4609C15.0045 13.6227 14.8459 13.4312 14.8459 13.2687C14.844 13.178 14.8608 13.0879 14.8951 13.0039C14.9849 12.8695 15.2373 12.7758 15.3912 12.8164C15.4724 12.8367 16.1599 13.4719 16.9131 14.2242C17.6701 14.9812 18.3334 15.5992 18.3943 15.5992C18.5615 15.5992 18.6709 15.432 18.5935 15.2898C18.5568 15.225 17.9177 14.5695 17.1771 13.8289C16.0177 12.6734 15.8302 12.4578 15.8302 12.2867C15.8265 12.1946 15.8433 12.1028 15.8795 12.018C15.949 11.9164 16.1927 11.7945 16.331 11.7945C16.392 11.7945 17.1568 12.5062 18.0318 13.3773C19.6349 14.9727 19.7529 15.0617 19.9201 14.7977C19.981 14.7 19.7615 14.4516 18.4021 13.0883C16.9982 11.6805 16.8115 11.4688 16.8115 11.2859C16.8115 11.1602 16.8685 11.0297 16.9584 10.9484C17.2552 10.668 17.3451 10.725 18.7896 12.1609C20.1568 13.5242 20.2787 13.6133 20.4459 13.3531C20.5068 13.2555 20.2302 12.9547 18.5334 11.2531C16.6857 9.39766 16.5521 9.24688 16.5521 9.03125C16.5521 8.70547 16.7396 8.55078 17.1013 8.57578C17.1662 8.57969 17.5568 8.90938 17.9599 9.30391C18.367 9.69844 18.806 10.0688 18.9365 10.1258C19.1927 10.2313 19.4896 10.2477 19.6162 10.1664C19.7381 10.0891 16.3607 6.76484 15.9217 6.53281C15.5452 6.32963 15.1311 6.20563 14.705 6.16847C14.2788 6.1313 13.8495 6.18174 13.4436 6.31669C13.0376 6.45164 12.6636 6.66824 12.3445 6.95317C12.0254 7.23809 11.7679 7.5853 11.5881 7.97344C11.3763 8.425 11.3482 8.55938 11.3193 9.14141C11.2951 9.69063 11.3154 9.86172 11.4334 10.2117C11.6451 10.8344 11.8279 11.0906 12.7763 12.0594C13.8021 13.1094 13.9974 13.3492 14.2576 13.9109C14.9904 15.4734 14.681 17.2805 13.4724 18.4844C12.5529 19.4078 11.2998 19.8391 10.0584 19.6687V19.6695Z" fill="white"/>
</g>
<defs>
<clipPath id="clip0_308_99">
<rect width="25" height="25" fill="white"/>
</clipPath>
</defs>
</svg>
