<svg width="21" height="17" viewBox="0 0 21 17" fill="none" xmlns="http://www.w3.org/2000/svg">
<path d="M18.5731 0.166016C19.1947 0.166016 19.7908 0.412946 20.2304 0.852484C20.6699 1.29202 20.9168 1.88816 20.9168 2.50977V14.4941C20.9168 15.1157 20.6699 15.7119 20.2304 16.1514C19.7908 16.591 19.1947 16.8379 18.5731 16.8379H2.42725C2.11946 16.8379 1.81469 16.7773 1.53033 16.6595C1.24597 16.5417 0.987602 16.3691 0.769965 16.1514C0.552327 15.9338 0.379688 15.6754 0.261903 15.3911C0.144119 15.1067 0.0834961 14.8019 0.0834961 14.4941V2.50977C0.0834961 1.88816 0.330426 1.29202 0.769965 0.852484C1.2095 0.412946 1.80565 0.166016 2.42725 0.166016H18.5731ZM8.15641 9.02018H4.51058C4.32179 9.02019 4.13939 9.08856 3.99711 9.21265C3.85483 9.33674 3.7623 9.50815 3.73662 9.69518L3.72933 9.80143V10.3139L3.73766 10.4264C3.90641 11.5869 4.87725 12.1452 6.3335 12.1452C7.71995 12.1452 8.66683 11.6389 8.90016 10.5889L8.92933 10.4275L8.93766 10.315V9.80143C8.93766 9.61264 8.86929 9.43024 8.7452 9.28796C8.62111 9.14568 8.4497 9.05315 8.26266 9.02747L8.15641 9.02018ZM16.4897 9.53685H11.8043L11.6981 9.54414C11.5111 9.56987 11.3397 9.66243 11.2157 9.8047C11.0917 9.94698 11.0233 10.1293 11.0233 10.3181C11.0233 10.5069 11.0917 10.6892 11.2157 10.8315C11.3397 10.9738 11.5111 11.0663 11.6981 11.0921L11.8043 11.0993H16.4897L16.596 11.0921C16.783 11.0663 16.9543 10.9738 17.0784 10.8315C17.2024 10.6892 17.2708 10.5069 17.2708 10.3181C17.2708 10.1293 17.2024 9.94698 17.0784 9.8047C16.9543 9.66243 16.783 9.56987 16.596 9.54414L16.4897 9.53685ZM6.3335 4.8556C5.9191 4.8556 5.52167 5.02022 5.22864 5.31324C4.93562 5.60627 4.771 6.0037 4.771 6.4181C4.771 6.8325 4.93562 7.22993 5.22864 7.52295C5.52167 7.81598 5.9191 7.9806 6.3335 7.9806C6.7479 7.9806 7.14533 7.81598 7.43835 7.52295C7.73138 7.22993 7.896 6.8325 7.896 6.4181C7.896 6.0037 7.73138 5.60627 7.43835 5.31324C7.14533 5.02022 6.7479 4.8556 6.3335 4.8556ZM16.4897 5.89518H11.8043L11.6981 5.90247C11.5111 5.9282 11.3397 6.02076 11.2157 6.16303C11.0917 6.30531 11.0233 6.48768 11.0233 6.67643C11.0233 6.86519 11.0917 7.04756 11.2157 7.18983C11.3397 7.33211 11.5111 7.42466 11.6981 7.45039L11.8043 7.45768H16.4897L16.596 7.45039C16.783 7.42466 16.9543 7.33211 17.0784 7.18983C17.2024 7.04756 17.2708 6.86519 17.2708 6.67643C17.2708 6.48768 17.2024 6.30531 17.0784 6.16303C16.9543 6.02076 16.783 5.9282 16.596 5.90247L16.4897 5.89518Z" fill="white"/>
</svg>
