<svg width="50" height="50" viewBox="0 0 50 50" fill="none" xmlns="http://www.w3.org/2000/svg">
<path fill-rule="evenodd" clip-rule="evenodd" d="M42.4478 17.0288C42.7873 16.1955 43.8811 12.8892 42.1082 8.41005C42.1082 8.41005 39.3748 7.54963 33.1498 11.7955C30.5457 11.0663 27.7603 10.9621 24.9998 10.9621C22.2394 10.9621 19.454 11.0663 16.8498 11.7955C10.6248 7.52463 7.8915 8.41005 7.8915 8.41005C6.12067 12.8892 7.21442 16.1955 7.55192 17.0288C5.4415 19.2955 4.1665 22.2121 4.1665 25.7538C4.1665 39.1642 12.8373 42.1851 24.9478 42.1851C37.0582 42.1851 45.8332 39.1642 45.8332 25.7538C45.8332 22.2121 44.5561 19.2955 42.4478 17.0288ZM24.9998 39.633C16.4061 39.633 9.42692 39.2434 9.42692 30.91C9.42692 28.9309 10.4165 27.0559 12.0832 25.5184C14.8707 22.9663 19.6353 24.3205 24.9998 24.3205C30.3915 24.3205 35.104 22.9663 37.9165 25.5184C39.6103 27.0559 40.5728 28.9038 40.5728 30.91C40.5728 39.2163 33.5936 39.633 24.9998 39.633ZM18.4644 26.5871C16.7457 26.5871 15.3394 28.6705 15.3394 31.2226C15.3394 33.7746 16.7436 35.883 18.4644 35.883C20.1832 35.883 21.5894 33.7996 21.5894 31.2226C21.5894 28.6434 20.1832 26.5871 18.4644 26.5871ZM31.5353 26.5871C29.8165 26.5871 28.4103 28.6434 28.4103 31.2226C28.4103 33.7996 29.8165 35.883 31.5353 35.883C33.254 35.883 34.6603 33.7996 34.6603 31.2226C34.6603 28.6434 33.2811 26.5871 31.5353 26.5871Z" fill="white"/>
</svg>
