<svg width="20" height="18" viewBox="0 0 20 18" fill="none" xmlns="http://www.w3.org/2000/svg">
<path fill-rule="evenodd" clip-rule="evenodd" d="M0.5 8.99955C0.5 8.6846 0.625111 8.38256 0.847811 8.15986C1.07051 7.93716 1.37256 7.81205 1.6875 7.81205H15.4459L10.3468 2.7153C10.1238 2.49232 9.9985 2.18989 9.9985 1.87455C9.9985 1.5592 10.1238 1.25678 10.3468 1.0338C10.5697 0.810816 10.8722 0.685547 11.1875 0.685547C11.5028 0.685547 11.8053 0.810816 12.0282 1.0338L19.1532 8.1588C19.2638 8.2691 19.3516 8.40015 19.4114 8.54442C19.4713 8.68869 19.5021 8.84335 19.5021 8.99955C19.5021 9.15574 19.4713 9.31041 19.4114 9.45468C19.3516 9.59895 19.2638 9.72999 19.1532 9.8403L12.0282 16.9653C11.8053 17.1883 11.5028 17.3135 11.1875 17.3135C10.8722 17.3135 10.5697 17.1883 10.3468 16.9653C10.1238 16.7423 9.9985 16.4399 9.9985 16.1245C9.9985 15.8092 10.1238 15.5068 10.3468 15.2838L15.4459 10.187H1.6875C1.37256 10.187 1.07051 10.0619 0.847811 9.83924C0.625111 9.61654 0.5 9.31449 0.5 8.99955Z" fill="#3A5DFF"/>
</svg>
