<svg width="19" height="17" viewBox="0 0 19 17" fill="none" xmlns="http://www.w3.org/2000/svg">
<path fill-rule="evenodd" clip-rule="evenodd" d="M18.25 8.49943C18.25 8.78951 18.1348 9.06771 17.9297 9.27283C17.7245 9.47795 17.4463 9.59318 17.1563 9.59318H4.48406L9.18063 14.2876C9.28232 14.3892 9.36299 14.51 9.41802 14.6428C9.47306 14.7757 9.50138 14.9181 9.50138 15.0619C9.50138 15.2057 9.47306 15.3482 9.41802 15.481C9.36299 15.6139 9.28232 15.7346 9.18063 15.8363C9.07893 15.938 8.95821 16.0187 8.82534 16.0737C8.69247 16.1287 8.55007 16.1571 8.40625 16.1571C8.26244 16.1571 8.12003 16.1287 7.98716 16.0737C7.8543 16.0187 7.73357 15.938 7.63188 15.8363L1.06938 9.2738C0.96752 9.1722 0.886707 9.05151 0.831568 8.91863C0.776429 8.78575 0.748047 8.64329 0.748047 8.49943C0.748047 8.35556 0.776429 8.21311 0.831568 8.08023C0.886707 7.94735 0.96752 7.82665 1.06938 7.72505L7.63188 1.16255C7.83725 0.957177 8.1158 0.841797 8.40625 0.841797C8.6967 0.841797 8.97525 0.957177 9.18063 1.16255C9.386 1.36793 9.50138 1.64648 9.50138 1.93693C9.50138 2.22738 9.386 2.50593 9.18063 2.7113L4.48406 7.40568H17.1563C17.4463 7.40568 17.7245 7.52091 17.9297 7.72603C18.1348 7.93115 18.25 8.20935 18.25 8.49943Z" fill="#3A5DFF"/>
</svg>
