<svg width="58" height="58" viewBox="0 0 58 58" fill="none" xmlns="http://www.w3.org/2000/svg">
<g filter="url(#filter0_d_310_530)">
<path d="M29.0082 0C18.5709 0 15.5184 0.0107701 14.925 0.0600051C12.7831 0.238097 11.4503 0.575433 9.99827 1.29857C8.87925 1.85439 7.99673 2.49867 7.12574 3.40183C5.5395 5.04889 4.57814 7.07521 4.23013 9.48388C4.06093 10.6532 4.01171 10.8917 4.00171 16.8645C3.99786 18.8554 4.00171 21.4757 4.00171 24.9902C4.00171 35.4218 4.01325 38.4721 4.06324 39.0645C4.23628 41.1493 4.56314 42.4609 5.25532 43.8956C6.57815 46.642 9.1046 48.7037 12.081 49.473C13.1115 49.7384 14.2498 49.8846 15.711 49.9538C16.3302 49.9808 22.6405 50 28.9547 50C35.2689 50 41.5831 49.9923 42.1868 49.9615C43.8788 49.8819 44.8613 49.75 45.9477 49.4692C47.4235 49.0906 48.7989 48.3944 49.9778 47.429C51.1567 46.4637 52.1108 45.2526 52.7733 43.8803C53.452 42.4801 53.7962 41.1185 53.9519 39.1425C53.9858 38.7117 54 31.8431 54 24.9837C54 18.1231 53.9846 11.2671 53.9508 10.8363C53.7931 8.82844 53.4489 7.47833 52.7483 6.05128C52.1734 4.88311 51.5351 4.01072 50.6083 3.11873C48.9548 1.53859 46.9321 0.576972 44.5214 0.22925C43.3535 0.0603897 43.1209 0.0103855 37.1451 0H29.0082Z" fill="url(#paint0_radial_310_530)"/>
<path d="M29.0082 0C18.5709 0 15.5184 0.0107701 14.925 0.0600051C12.7831 0.238097 11.4503 0.575433 9.99827 1.29857C8.87925 1.85439 7.99673 2.49867 7.12574 3.40183C5.5395 5.04889 4.57814 7.07521 4.23013 9.48388C4.06093 10.6532 4.01171 10.8917 4.00171 16.8645C3.99786 18.8554 4.00171 21.4757 4.00171 24.9902C4.00171 35.4218 4.01325 38.4721 4.06324 39.0645C4.23628 41.1493 4.56314 42.4609 5.25532 43.8956C6.57815 46.642 9.1046 48.7037 12.081 49.473C13.1115 49.7384 14.2498 49.8846 15.711 49.9538C16.3302 49.9808 22.6405 50 28.9547 50C35.2689 50 41.5831 49.9923 42.1868 49.9615C43.8788 49.8819 44.8613 49.75 45.9477 49.4692C47.4235 49.0906 48.7989 48.3944 49.9778 47.429C51.1567 46.4637 52.1108 45.2526 52.7733 43.8803C53.452 42.4801 53.7962 41.1185 53.9519 39.1425C53.9858 38.7117 54 31.8431 54 24.9837C54 18.1231 53.9846 11.2671 53.9508 10.8363C53.7931 8.82844 53.4489 7.47833 52.7483 6.05128C52.1734 4.88311 51.5351 4.01072 50.6083 3.11873C48.9548 1.53859 46.9321 0.576972 44.5214 0.22925C43.3535 0.0603897 43.1209 0.0103855 37.1451 0H29.0082Z" fill="url(#paint1_radial_310_530)"/>
<path d="M29.0012 6.86328C23.8791 6.86328 23.2363 6.8854 21.2246 6.97582C19.2168 7.06663 17.8463 7.38058 16.6472 7.84122C15.4067 8.317 14.3545 8.95344 13.3062 9.9892C12.2572 11.0246 11.6128 12.0638 11.1295 13.2886C10.6619 14.4734 10.3437 15.8274 10.2533 17.8096C10.1637 19.7966 10.1401 20.4318 10.1401 25.4907C10.1401 30.5496 10.1629 31.1826 10.2541 33.1695C10.3464 35.1526 10.6643 36.5062 11.1303 37.6905C11.6124 38.9157 12.2568 39.955 13.3054 40.9903C14.3533 42.0265 15.4056 42.6645 16.6452 43.1402C17.8452 43.6009 19.216 43.9148 21.2234 44.0056C23.2352 44.0961 23.8776 44.1182 28.9992 44.1182C34.1216 44.1182 34.7625 44.0961 36.7742 44.0056C38.782 43.9148 40.154 43.6009 41.354 43.1402C42.594 42.6645 43.6447 42.0265 44.6926 40.9903C45.7416 39.955 46.386 38.9157 46.8693 37.6909C47.3329 36.5062 47.6512 35.1522 47.7455 33.1699C47.8359 31.183 47.8594 30.5496 47.8594 25.4907C47.8594 20.4318 47.8359 19.7969 47.7455 17.81C47.6512 15.827 47.3329 14.4734 46.8693 13.289C46.386 12.0638 45.7416 11.0246 44.6926 9.9892C43.6435 8.95305 42.5944 8.31661 41.3528 7.84122C40.1505 7.38058 38.7792 7.06663 36.7714 6.97582C34.7597 6.8854 34.1193 6.86328 28.9957 6.86328H29.0012ZM27.3093 10.2201C27.8114 10.2193 28.3717 10.2201 29.0012 10.2201C34.0367 10.2201 34.6336 10.238 36.6221 10.3272C38.4609 10.4103 39.4589 10.7137 40.1238 10.9687C41.0039 11.3063 41.6314 11.7099 42.2911 12.3619C42.9512 13.0138 43.3598 13.6347 43.7024 14.504C43.9606 15.1599 44.2682 16.1456 44.3519 17.9617C44.4423 19.9254 44.4619 20.5153 44.4619 25.4865C44.4619 30.4577 44.4423 31.0475 44.3519 33.0112C44.2678 34.8274 43.9606 35.8131 43.7024 36.4689C43.3606 37.3382 42.9512 37.9572 42.2911 38.6087C41.631 39.2607 41.0043 39.6643 40.1238 40.0019C39.4597 40.258 38.4609 40.5607 36.6221 40.6438C34.634 40.733 34.0367 40.7524 29.0012 40.7524C23.9652 40.7524 23.3684 40.733 21.3802 40.6438C19.5414 40.56 18.5434 40.2565 17.8782 40.0015C16.998 39.6639 16.3694 39.2603 15.7093 38.6083C15.0492 37.9564 14.6406 37.337 14.2979 36.4673C14.0398 35.8115 13.7322 34.8258 13.6485 33.0096C13.5581 31.046 13.54 30.4561 13.54 25.4818C13.54 20.5075 13.5581 19.9207 13.6485 17.9571C13.7325 16.1409 14.0398 15.1552 14.2979 14.4986C14.6398 13.6293 15.0492 13.0084 15.7093 12.3564C16.3694 11.7045 16.998 11.3009 17.8782 10.9625C18.543 10.7064 19.5414 10.4037 21.3802 10.3202C23.12 10.2426 23.7943 10.2193 27.3093 10.2154V10.2201ZM39.0684 13.313C38.6207 13.313 38.1831 13.4442 37.811 13.6898C37.4388 13.9355 37.1487 14.2846 36.9774 14.6931C36.8061 15.1016 36.7614 15.5511 36.8488 15.9847C36.9361 16.4183 37.1518 16.8166 37.4684 17.1292C37.7849 17.4418 38.1883 17.6546 38.6273 17.7408C39.0664 17.8269 39.5215 17.7826 39.935 17.6133C40.3485 17.4439 40.702 17.1573 40.9505 16.7896C41.1991 16.4219 41.3317 15.9897 41.3316 15.5476C41.3316 14.3135 40.3179 13.3123 39.0684 13.3123V13.313ZM29.0012 15.9248C23.6524 15.9248 19.3158 20.2079 19.3158 25.4907C19.3158 30.7736 23.6524 35.0548 29.0012 35.0548C34.3499 35.0548 38.6853 30.7736 38.6853 25.4907C38.6853 20.2079 34.3495 15.9248 29.0008 15.9248H29.0012ZM29.0012 19.2816C32.4729 19.2816 35.2878 22.0613 35.2878 25.4907C35.2878 28.9197 32.4729 31.6999 29.0012 31.6999C25.529 31.6999 22.7145 28.9197 22.7145 25.4907C22.7145 22.0613 25.529 19.2816 29.0012 19.2816V19.2816Z" fill="white"/>
</g>
<defs>
<filter id="filter0_d_310_530" x="0" y="0" width="58" height="58" filterUnits="userSpaceOnUse" color-interpolation-filters="sRGB">
<feFlood flood-opacity="0" result="BackgroundImageFix"/>
<feColorMatrix in="SourceAlpha" type="matrix" values="0 0 0 0 0 0 0 0 0 0 0 0 0 0 0 0 0 0 127 0" result="hardAlpha"/>
<feOffset dy="4"/>
<feGaussianBlur stdDeviation="2"/>
<feComposite in2="hardAlpha" operator="out"/>
<feColorMatrix type="matrix" values="0 0 0 0 0 0 0 0 0 0 0 0 0 0 0 0 0 0 0.25 0"/>
<feBlend mode="normal" in2="BackgroundImageFix" result="effect1_dropShadow_310_530"/>
<feBlend mode="normal" in="SourceGraphic" in2="effect1_dropShadow_310_530" result="shape"/>
</filter>
<radialGradient id="paint0_radial_310_530" cx="0" cy="0" r="1" gradientUnits="userSpaceOnUse" gradientTransform="translate(17.2813 53.851) rotate(-90) scale(49.5537 46.0888)">
<stop stop-color="#FFDD55"/>
<stop offset="0.1" stop-color="#FFDD55"/>
<stop offset="0.5" stop-color="#FF543E"/>
<stop offset="1" stop-color="#C837AB"/>
</radialGradient>
<radialGradient id="paint1_radial_310_530" cx="0" cy="0" r="1" gradientUnits="userSpaceOnUse" gradientTransform="translate(-4.37526 3.60192) rotate(78.6806) scale(22.1507 91.3062)">
<stop stop-color="#3771C8"/>
<stop offset="0.128" stop-color="#3771C8"/>
<stop offset="1" stop-color="#6600FF" stop-opacity="0"/>
</radialGradient>
</defs>
</svg>
