<svg width="500" height="500" viewBox="0 0 500 500" fill="none" xmlns="http://www.w3.org/2000/svg">
<g clip-path="url(#clip0_310_362)">
<path d="M498.346 73.8087L263.471 492.171C258.621 500.809 246.162 500.859 241.24 492.264L1.70884 73.8476C-3.65444 64.4818 4.38658 53.1355 15.0428 55.0344L250.17 96.8963C251.67 97.1633 253.206 97.1606 254.705 96.8885L484.914 55.0927C495.535 53.1647 503.613 64.4235 498.346 73.8087Z" fill="url(#paint0_linear_310_362)"/>
<path d="M362.172 0.120825L188.359 34.0469C186.971 34.3179 185.712 35.041 184.78 36.1024C183.849 37.1639 183.298 38.5035 183.215 39.9107L172.523 219.786C172.465 220.773 172.638 221.759 173.028 222.668C173.419 223.576 174.017 224.381 174.775 225.019C175.533 225.657 176.429 226.11 177.394 226.343C178.358 226.575 179.363 226.58 180.33 226.358L228.723 215.234C233.25 214.193 237.342 218.166 236.41 222.701L222.033 292.831C221.066 297.551 225.514 301.586 230.141 300.185L260.031 291.14C264.664 289.74 269.117 293.786 268.137 298.51L245.289 408.668C243.859 415.559 253.061 419.315 256.897 413.409L259.461 409.463L401.094 127.907C403.467 123.193 399.375 117.817 394.18 118.817L344.365 128.393C339.686 129.292 335.703 124.95 337.023 120.389L369.535 8.12277C370.857 3.55079 366.859 -0.793571 362.174 0.120825H362.172Z" fill="url(#paint1_linear_310_362)"/>
</g>
<defs>
<linearGradient id="paint0_linear_310_362" x1="-4.13951" y1="88.7881" x2="247.892" y2="432.406" gradientUnits="userSpaceOnUse">
<stop stop-color="#41D1FF"/>
<stop offset="1" stop-color="#BD34FE"/>
</linearGradient>
<linearGradient id="paint1_linear_310_362" x1="271.961" y1="9.33243" x2="323.676" y2="365.468" gradientUnits="userSpaceOnUse">
<stop stop-color="#FFEA83"/>
<stop offset="0.08333" stop-color="#FFDD35"/>
<stop offset="1" stop-color="#FFA800"/>
</linearGradient>
<clipPath id="clip0_310_362">
<rect width="500" height="500" fill="white"/>
</clipPath>
</defs>
</svg>
