<svg width="450" height="500" viewBox="0 0 450 500" fill="none" xmlns="http://www.w3.org/2000/svg">
<g clip-path="url(#clip0_310_393)">
<path d="M112.5 500.007C174.6 500.007 225 462.673 225 416.673V333.34H112.5C50.4 333.34 0 370.673 0 416.673C0 462.673 50.4 500.007 112.5 500.007Z" fill="#0ACF83"/>
<path d="M0 249.993C0 203.993 50.4 166.66 112.5 166.66H225V333.327H112.5C50.4 333.327 0 295.993 0 249.993Z" fill="#A259FF"/>
<path d="M0 83.3333C0 37.3333 50.4 0 112.5 0H225V166.667H112.5C50.4 166.667 0 129.333 0 83.3333Z" fill="#F24E1E"/>
<path d="M225 0H337.5C399.6 0 450 37.3333 450 83.3333C450 129.333 399.6 166.667 337.5 166.667H225V0Z" fill="#FF7262"/>
<path d="M450 249.993C450 295.993 399.6 333.327 337.5 333.327C275.4 333.327 225 295.993 225 249.993C225 203.993 275.4 166.66 337.5 166.66C399.6 166.66 450 203.993 450 249.993Z" fill="#1ABCFE"/>
</g>
<defs>
<clipPath id="clip0_310_393">
<rect width="450" height="500" fill="white"/>
</clipPath>
</defs>
</svg>
