<svg width="50" height="50" viewBox="0 0 50 50" fill="none" xmlns="http://www.w3.org/2000/svg">
<g clip-path="url(#clip0_308_96)">
<path d="M47.2404 50.0002C48.7643 50.0002 50 48.7646 50 47.2406V2.75957C50 1.23535 48.7643 0 47.2404 0H2.75957C1.23516 0 0 1.23535 0 2.75957V47.2406C0 48.7646 1.23516 50.0002 2.75957 50.0002H47.2404" fill="#395185"/>
<path d="M34.4988 49.9992V30.6365H40.9982L41.9713 23.0906H34.4988V18.2727C34.4988 16.0879 35.1057 14.599 38.2387 14.599L42.2346 14.5973V7.84824C41.5432 7.75625 39.1713 7.55078 36.4119 7.55078C30.6506 7.55078 26.7064 11.0674 26.7064 17.5256V23.0906H20.1904V30.6365H26.7064V49.9992H34.4988" fill="white"/>
</g>
<defs>
<clipPath id="clip0_308_96">
<rect width="50" height="50" fill="white"/>
</clipPath>
</defs>
</svg>
