<svg width="500" height="500" viewBox="0 0 500 500" fill="none" xmlns="http://www.w3.org/2000/svg">
<g clip-path="url(#clip0_310_360)">
<path d="M401.464 162.06C396.268 160.008 391.028 158.107 385.748 156.359C386.635 152.188 387.451 148.068 388.176 144.02C400.074 77.546 392.296 23.9935 365.728 6.36139C340.256 -10.5419 298.597 7.08362 256.525 49.2254C252.379 53.3861 248.324 57.6667 244.366 62.0631C241.716 59.1396 239.019 56.2729 236.277 53.4644C192.183 8.40515 147.985 -10.5858 121.447 7.09679C95.9969 24.0527 88.4609 74.3959 99.1726 137.395C100.238 143.634 101.442 149.841 102.781 156.01C96.5252 158.056 90.4884 160.234 84.7111 162.552C33.0143 183.297 0 215.806 0 249.527C0 284.354 35.4424 319.287 89.2868 340.468C93.6521 342.179 98.0537 343.763 102.488 345.221C101.048 351.865 99.7691 358.555 98.6538 365.281C88.4418 427.186 96.4165 476.34 121.798 493.188C148.012 510.588 192.011 492.705 234.852 449.602C238.326 446.098 241.723 442.494 245.041 438.795C249.328 443.555 253.729 448.177 258.24 452.656C299.74 493.755 340.725 510.35 366.081 493.456C392.271 476.006 400.784 423.202 389.732 358.959C388.862 353.926 387.886 348.918 386.805 343.939C389.894 342.885 392.927 341.801 395.884 340.673C451.86 319.328 488.281 284.819 488.281 249.527C488.281 215.683 454.201 182.954 401.464 162.06ZM389.324 317.886C386.654 318.902 383.915 319.884 381.123 320.839C374.943 298.322 366.604 274.381 356.398 249.643C366.137 225.496 374.155 201.86 380.161 179.49C385.157 181.154 390.003 182.908 394.676 184.759C439.861 202.663 467.422 229.131 467.422 249.527C467.422 271.251 437.656 299.453 389.324 317.886ZM369.27 363.621C374.157 392.028 374.853 417.712 371.616 437.792C368.71 455.834 362.862 467.862 355.629 472.68C340.242 482.932 307.335 469.607 271.845 434.457C267.649 430.294 263.555 425.997 259.567 421.571C273.327 404.253 287.077 384.121 300.497 361.76C324.102 359.35 346.403 355.407 366.627 350.026C367.601 354.534 368.482 359.066 369.27 363.621ZM166.466 470.909C151.432 477.018 139.458 477.194 132.219 472.391C116.817 462.167 110.415 422.699 119.148 369.759C120.186 363.504 121.375 357.282 122.713 351.102C142.714 356.195 164.852 359.857 188.513 362.065C202.024 383.945 216.171 404.055 230.429 421.665C227.399 425.04 224.297 428.328 221.127 431.526C202.181 450.585 183.197 464.108 166.466 470.909ZM96.035 317.752C72.2256 308.385 52.5627 296.213 39.0854 282.929C26.9737 270.994 20.8607 259.142 20.8607 249.527C20.8607 229.063 47.3671 202.962 91.5775 185.222C96.9429 183.071 102.558 181.04 108.385 179.135C114.496 202.009 122.511 225.926 132.183 250.111C122.385 274.653 114.256 298.952 108.086 322.097C104.038 320.762 100.02 319.314 96.035 317.752ZM119.644 132.782C110.468 78.8083 116.562 38.0934 131.899 27.8746C148.233 16.9907 184.355 32.5087 222.427 71.4169C224.91 73.9599 227.352 76.5543 229.753 79.199C215.567 96.7323 201.55 116.694 188.158 138.444C165.194 140.894 143.211 144.828 123.001 150.098C121.756 144.36 120.637 138.587 119.644 132.785V132.782ZM330.267 192.642C325.493 183.152 320.543 173.781 315.418 164.536C330.997 166.804 345.924 169.814 359.941 173.493C355.734 189.017 350.489 205.247 344.315 221.887C339.802 212.032 335.118 202.281 330.267 192.642ZM244.375 96.3569C253.996 108.354 263.632 121.747 273.109 136.279C253.883 135.234 234.625 135.23 215.399 136.266C224.886 121.868 234.604 108.492 244.375 96.3569ZM157.932 192.806C153.142 202.369 148.546 212.058 144.148 221.867C138.075 205.286 132.877 188.982 128.633 173.238C142.565 169.651 157.421 166.718 172.901 164.492C167.72 173.794 162.729 183.233 157.932 192.804V192.806ZM173.346 336.269C157.352 334.214 142.273 331.433 128.345 327.942C132.656 311.917 137.968 295.266 144.173 278.33C148.588 288.146 153.203 297.842 158.014 307.408C162.962 317.243 168.085 326.876 173.346 336.269ZM244.951 404.387C235.064 392.111 225.203 378.529 215.572 363.922C224.922 364.344 234.453 364.559 244.141 364.559C254.093 364.559 263.931 364.302 273.615 363.806C264.107 378.676 254.507 392.278 244.951 404.387ZM344.511 277.465C351.038 294.588 356.539 311.151 360.907 326.902C346.75 330.621 331.465 333.615 315.359 335.839C320.52 326.422 325.518 316.889 330.349 307.244C335.261 297.44 339.983 287.511 344.511 277.465ZM312.281 295.249C304.884 310.037 297.072 324.544 288.857 338.747C273.975 339.96 259.06 340.563 244.141 340.554C228.945 340.554 214.165 340.01 199.932 338.947C191.502 324.777 183.541 310.244 176.065 295.381H176.067C168.627 280.596 161.677 265.491 155.233 250.1C161.661 234.704 168.59 219.593 176.004 204.797L176.003 204.799C183.414 189.999 191.312 175.529 199.678 161.419C214.199 160.155 229.09 159.496 244.139 159.496H244.141C259.258 159.496 274.168 160.161 288.685 161.434C296.967 175.523 304.814 189.944 312.212 204.669C319.651 219.433 326.672 234.471 333.262 249.759C326.739 265.204 319.741 280.377 312.281 295.249ZM355.31 27.159C371.66 38.0122 378.019 81.7784 367.746 139.173C367.09 142.834 366.354 146.564 365.553 150.346C345.293 144.964 323.296 140.962 300.264 138.475C286.848 116.485 272.945 96.493 258.989 79.1859C262.647 75.128 266.392 71.1754 270.22 67.3316C306.269 31.2267 339.96 16.9709 355.31 27.159ZM244.141 199.344C268.221 199.344 287.743 221.812 287.743 249.527C287.743 277.241 268.221 299.71 244.141 299.71C220.06 299.71 200.539 277.241 200.539 249.527C200.539 221.812 220.06 199.344 244.141 199.344Z" fill="#00D8FF"/>
</g>
<defs>
<clipPath id="clip0_310_360">
<rect width="500" height="500" fill="white"/>
</clipPath>
</defs>
</svg>
