<svg width="500" height="500" viewBox="0 0 500 500" fill="none" xmlns="http://www.w3.org/2000/svg">
<path d="M337.792 140.875L336.229 149.021C333.812 164.458 334.688 168.875 341.312 174.604L347.708 179.896L341.083 209.438C337.125 227.063 332.271 241.833 329.188 246.687C326.542 250.875 323.458 257.042 322.792 260.354C321.688 264.312 317.938 268.292 312.208 271.812C307.146 274.688 297.208 282.396 290.167 288.583C284.542 293.646 280.667 296.75 278.562 298.083L271.688 303.521C269.92 306.143 268.59 309.035 267.75 312.083C267.271 314.312 267.542 315.792 268.25 316.875C268.938 317.917 270.125 318.646 271.75 319.104C273.674 319.555 275.654 319.717 277.625 319.583C282.085 319.279 286.499 318.496 290.792 317.25C292.25 316.854 293.396 316.479 294.396 316.146C295.938 314.25 299.5 310.667 305.812 304.438C322.562 287.917 328.958 278.875 322.354 281.313C319.917 282.188 321.021 279.979 325.208 275.562C334.042 266.958 339.104 253.958 349.688 213.188C358.062 181 358.062 180.542 364.229 180.542C367.125 180.542 375.312 181.042 375.312 181.042V140.875H356.521H337.792ZM417.771 206.812C416.438 206.812 414.229 208.812 412.917 211.021C410.5 214.979 413.354 217.396 449.729 240.104C471.333 253.792 488.75 265.458 488.312 266.354C487.875 267 470.229 278.479 449.083 291.708C410.708 315.5 410.5 315.729 414.021 320.583C418.438 326.312 414.021 328.292 463.833 297.208L500 274.062V256.646L459.646 231.729C437.833 218.062 418.875 207.042 417.771 206.812ZM82.6667 209.25C81.5625 209.25 62.6042 220.5 40.7917 233.938L0 258.854V276.271L40.5625 301.625C63.0625 315.5 82.0208 326.979 82.8958 326.979C83.7708 326.979 85.5417 324.979 87.3125 322.562C89.9583 318.375 87.7292 316.604 50.4792 293.021C15 270.75 11.25 267.667 14.7917 265.25C17 263.708 33.75 253.333 51.8333 242.104C93.0625 216.75 90.8542 218.5 87.5417 213.208C86.2292 211.021 84 209.042 82.6875 209.25H82.6667ZM263.583 209.729C257.5 209.688 244.417 218.958 205.25 250.938C203.563 254.958 203.417 257.729 204.188 259.521C204.688 260.75 205.604 261.604 206.875 262.229C208.125 262.854 209.75 263.229 211.542 263.375C215.104 263.688 219.312 263.125 222.708 262.458L225 261.938C225.784 260.886 226.814 260.042 228 259.479C230.417 258.146 240.563 248.896 250.708 238.979C268.563 220.896 272.75 212.729 265.479 210.083C264.883 209.846 264.246 209.726 263.604 209.729H263.583ZM309.333 222.292C303.979 222.438 294.333 228.646 277.812 241.833C269.521 248.562 264.271 252.188 261.458 252.938L250.542 261.563C246.438 269.063 245.833 273.708 246.917 276.271C247.188 276.903 247.581 277.475 248.075 277.954C248.568 278.433 249.152 278.81 249.792 279.063C251.383 279.691 253.08 280.009 254.792 280C258.881 279.956 262.945 279.361 266.875 278.229C268.923 277.68 270.946 277.04 272.938 276.312L273.542 276.063L274.646 275.479C276.729 272.792 281.521 267.729 287.521 261.896C306.479 243.604 316.167 230.604 314.188 225.75C313.292 223.396 311.75 222.208 309.333 222.292ZM258.833 244.792C257.292 244.958 253.833 247.625 247.604 253.083C238.604 261.042 228.792 265.625 225.396 263.583C224.607 263.762 223.815 263.928 223.021 264.083C219.562 264.771 215.25 265.333 211.396 265.021C209.58 264.911 207.8 264.466 206.146 263.708C204.586 262.995 203.341 261.735 202.646 260.167C201.875 258.292 201.875 255.958 202.75 252.979L189.208 264.104L158.562 289.458V330.562L258.979 251.458C258.96 250.592 259.072 249.728 259.312 248.896C260.083 246.104 260.042 244.688 258.833 244.813V244.792ZM302.042 258.104C300.521 258.104 297.979 260.25 293.917 264.563C288.396 270.458 279.708 276.167 275.104 277.333L274.396 277.708C273.64 278.02 272.876 278.312 272.104 278.583C270.854 279 269.229 279.5 267.354 280C263.604 281.021 258.938 281.958 254.771 281.854C252.806 281.852 250.861 281.47 249.042 280.729C247.327 280.022 245.953 278.678 245.208 276.979C244 274.083 244.479 270.021 247.125 264.25L158.542 334.021V359.125H197.458L280 294.292C282.146 291.917 285.375 288.667 289.729 284.604C301.396 273.792 304.042 270.062 304.042 264.542C304.042 260.25 303.562 258.083 302.042 258.083V258.104ZM321.688 298.729L314.625 305.771C310.667 309.521 303.604 314.146 298.771 316.125L297.812 316.542L297.75 316.646L297.542 316.854C297.354 317 297.271 317.021 297.125 317.083C295.196 317.814 293.235 318.46 291.25 319.021C286.836 320.306 282.295 321.109 277.708 321.417C275.54 321.556 273.362 321.366 271.25 320.854C269.417 320.451 267.799 319.382 266.708 317.854C265.708 316.312 265.417 314.25 265.979 311.708C266.427 309.899 267.091 308.15 267.958 306.5L201.354 359.125H289.938L300.521 347C315.062 330.042 321.688 317.917 321.688 307.542V298.729Z" fill="white"/>
</svg>
