<svg width="25" height="25" viewBox="0 0 25 25" fill="none" xmlns="http://www.w3.org/2000/svg">
<path d="M22.5 5.26316H18.75V2.63158C18.75 1.18026 17.6288 0 16.25 0H8.75C7.37125 0 6.25 1.18026 6.25 2.63158V5.26316H2.5C1.12125 5.26316 0 6.44342 0 7.89474V13.1579H6.25V10.5263H8.75V13.1579H16.25V10.5263H18.75V13.1579H25V7.89474C25 6.44342 23.8788 5.26316 22.5 5.26316ZM8.75 2.63158H16.25V5.26316H8.75V2.63158ZM18.75 17.1053H16.25V14.4737H8.75V17.1053H6.25V14.4737H0V22.3684C0 23.8197 1.12125 25 2.5 25H22.5C23.8788 25 25 23.8197 25 22.3684V14.4737H18.75V17.1053Z" fill="white"/>
</svg>
