<svg width="500" height="500" viewBox="0 0 500 500" fill="none" xmlns="http://www.w3.org/2000/svg">
<path d="M92.2188 425.016L57.125 31.25H442.875L407.734 424.953L249.766 468.75L92.2188 425.016Z" fill="#1572B6"/>
<path d="M250 435.281L377.656 399.891L407.688 63.4531H250V435.281Z" fill="#33A9DC"/>
<path d="M250 206.109H313.906L318.312 156.656H250V108.359H371.094L369.938 121.312L358.078 254.406H250V206.109Z" fill="white"/>
<path d="M250.297 331.531L250.078 331.594L196.297 317.063L192.859 278.547H144.375L151.141 354.375L250.062 381.844L250.297 381.781V331.531Z" fill="#EBEBEB"/>
<path d="M309.797 252.359L303.984 317.031L250.125 331.562V381.813L349.125 354.375L349.859 346.219L358.25 252.359H309.797Z" fill="white"/>
<path d="M250.172 108.359V156.656H133.516L132.547 145.797L130.344 121.312L129.188 108.359H250.172ZM250 206.109V254.406H196.891L195.922 243.547L193.734 219.063L192.578 206.109H250Z" fill="#EBEBEB"/>
</svg>
