<svg width="500" height="500" viewBox="0 0 500 500" fill="none" xmlns="http://www.w3.org/2000/svg">
<path d="M92.2188 425.016L57.1094 31.25H442.891L407.734 424.953L249.766 468.75L92.2188 425.016Z" fill="#E44F26"/>
<path d="M250 435.281L377.656 399.891L407.688 63.4531H250V435.281Z" fill="#F1662A"/>
<path d="M250 209.484H186.094L181.688 160.031H250V111.734H128.906L130.063 124.703L141.922 257.781H250V209.484ZM250 334.906L249.781 334.969L196 320.453L192.563 281.938H144.078L150.844 357.75L249.781 385.219L250 385.156V334.906Z" fill="#EBEBEB"/>
<path d="M249.828 209.484V257.781H309.297L303.703 320.422L249.828 334.953V385.203L348.844 357.75L349.562 349.594L360.906 222.453L362.094 209.484H249.828ZM249.828 111.734V160.031H366.484L367.453 149.188L369.656 124.703L370.812 111.734H249.828Z" fill="white"/>
</svg>
