<svg width="500" height="500" viewBox="0 0 500 500" fill="none" xmlns="http://www.w3.org/2000/svg">
<path d="M468.578 238.594C468.438 232.984 468.141 227.219 467.844 221.609C467.547 216 467.406 210.094 466.813 204.328C465.781 196.516 464.75 188.531 462.969 180.891C461.495 174.609 459.568 168.441 457.203 162.437C454.518 155.242 451.462 148.191 448.047 141.312C441.865 130.645 435.083 120.337 427.734 110.437C423.156 103.937 417.25 98.6249 412.813 91.9843C410.057 88.1423 406.72 84.7528 402.922 81.9374C397.016 77.2499 390.813 72.9218 384.609 68.7968C379.922 65.5468 375.234 62.4531 370.141 59.6406C366.156 57.4218 361.875 55.6562 357.734 53.7343C353.125 51.162 348.212 49.1778 343.109 47.8281C341.808 47.4998 340.525 47.1034 339.266 46.6406C335.875 45.4531 332.625 44.1249 329.219 43.0937C324.047 41.5312 319.031 39.5468 313.719 38.2187C308.513 36.9362 303.239 35.9502 297.922 35.2656C292.016 34.3749 285.953 34.0781 280.047 33.4999C276.203 33.0624 272.359 32.6093 268.672 32.4687C263.063 32.1718 257.297 32.1718 251.688 32.0312C248.84 31.7856 245.982 31.6865 243.125 31.7343C238.826 31.9107 234.54 32.3071 230.281 32.9218C226.141 33.3593 222.016 34.1093 218.016 34.6874C213.141 35.2812 208.266 35.5781 203.391 36.1718C198.813 36.7656 194.016 37.6562 189.516 38.3906C187.953 38.6874 186.266 39.2812 184.641 39.5781C181.007 40.1055 177.407 40.8464 173.859 41.7968C167.516 43.7187 161.156 45.9374 154.953 48.2968C149.209 50.5999 143.592 53.2077 138.125 56.1093C132.516 59.2343 127.188 62.9062 121.875 66.4531C116.859 69.8437 111.828 73.3906 106.953 77.2343C102.269 80.9873 97.7835 84.9824 93.5157 89.2031C91.1563 91.5624 89.2344 94.3749 87.0157 97.0156C83.3282 101.297 79.6251 105.437 76.0782 109.859C73.1251 113.547 70.4688 117.391 67.6563 121.234C62.7567 128.02 58.3146 135.124 54.3595 142.5C52.797 145.453 51.2345 148.406 49.7813 151.359C47.5626 155.797 45.2032 160.078 43.1407 164.656C41.6524 167.835 40.4649 171.146 39.5938 174.547C37.5313 181.781 35.4532 189.172 33.5313 196.422C31.9692 202.93 31.2032 209.604 31.2501 216.297C31.2247 222.172 31.5691 228.043 32.2813 233.875C32.422 235.344 31.547 237.125 33.3126 238.312C33.4532 238.312 33.3126 238.906 33.1563 239.047C33.0549 239.237 32.9977 239.448 32.9889 239.664C32.98 239.879 33.0199 240.094 33.1054 240.292C33.191 240.49 33.32 240.667 33.483 240.808C33.646 240.95 33.8388 241.053 34.047 241.109C34.1249 241.19 34.1743 241.295 34.1876 241.406H33.4845C33.047 242.734 34.5157 243.766 33.922 245.25C33.7813 245.547 34.3595 246.141 34.6563 246.578C34.5836 247.065 34.5836 247.56 34.6563 248.047C34.986 249.411 35.2313 250.793 35.3907 252.187C35.3907 253.219 36.2813 254.406 36.5782 255.437C36.6428 255.689 36.6497 255.951 36.5983 256.206C36.5468 256.46 36.4385 256.7 36.2813 256.906C35.3907 257.937 35.547 258.828 36.8751 259.422C37.2433 259.658 37.5063 260.028 37.6095 260.453C37.5352 261.349 37.3889 262.237 37.172 263.109C37.4688 263.406 37.6095 263.703 37.4688 264C37.3282 264.297 37.0313 264.891 37.172 265.187C38.2759 267.598 38.8767 270.209 38.9376 272.859C39.0191 273.53 39.2202 274.181 39.5313 274.781C39.8347 274.766 40.1379 274.814 40.422 274.922L39.5313 277.578C40.1904 277.219 40.8807 276.921 41.5938 276.687C41.9816 278.486 42.4773 280.26 43.0782 282C43.2953 282.367 43.6017 282.673 43.9688 282.891C43.8126 283.187 43.8126 283.781 43.5313 283.922C43.9439 286.536 44.587 289.109 45.4532 291.609C45.6095 291.609 45.7501 291.453 45.8907 291.453C45.4532 288.797 45.1563 285.984 44.7032 283.328V282.437C44.8404 282.364 44.9879 282.311 45.1407 282.281C45.3385 282.856 45.4849 283.447 45.5782 284.047C46.7657 284.047 48.5313 284.781 49.7188 284.781C49.8421 284.331 49.9881 283.888 50.1563 283.453C49.2657 282.562 48.5938 281.234 47.6407 280.328C47.7987 281.006 47.7987 281.712 47.6407 282.391C47.047 282.094 46.3126 281.797 45.5782 281.5C46.218 280.673 46.9068 279.885 47.6407 279.141C47.6407 277.812 46.9063 276.625 44.8282 276.781C45.7188 276.484 46.6095 276.047 47.6407 275.75C47.7618 276.154 47.9079 276.551 48.0782 276.937C49.2657 274.875 47.4845 273.25 47.4845 271.172C47.1617 268.555 46.5701 265.979 45.7188 263.484C44.9845 259.344 45.1251 253.141 44.6876 249.016C44.6876 248.719 44.2501 248.422 43.9532 248.125C43.797 248.281 43.0626 250.187 42.922 250.344C43.3595 253.891 43.8126 257.437 44.1095 260.984C43.9688 260.984 43.8126 260.984 43.8126 261.125C43.2188 258 42.6251 254.781 41.8907 251.234C41.7499 251.915 41.6508 252.604 41.5938 253.297C41.1563 253.156 41.0001 253 40.2657 252.703C40.8595 254.031 41.4532 254.922 41.8282 255.953C41.1221 255.682 40.3621 255.58 39.6095 255.656V259.797C38.5868 258.673 37.6956 257.435 36.9532 256.109C36.6563 254.922 36.5157 253.75 36.2188 252.562L36.6563 252.406C36.4637 251.932 36.3172 251.44 36.2188 250.937C36.073 249.896 35.9272 248.713 35.7813 247.391C35.922 247.25 36.5157 247.094 36.8126 246.797L35.6251 245.031C36.5043 245.179 37.3911 245.278 38.2813 245.328C38.2813 245.031 38.422 244.891 38.2813 244.734C36.797 243.406 37.8438 242.219 38.422 241.047C38.7188 240.453 39.7501 240.312 39.9845 239.719C41.172 237.5 43.1095 235.734 43.1095 232.922C43.235 231.532 43.4332 230.15 43.7032 228.781C44.0001 226.266 44.297 223.766 44.4376 221.25C44.5053 218.056 44.7977 214.871 45.3126 211.719C47.3628 202.701 50.1267 193.861 53.5782 185.281C55.6375 179.497 58.0055 173.827 60.672 168.297C64.6563 160.328 69.2345 152.672 73.672 144.859C76.4845 139.984 79.4376 135.484 82.5313 130.687C85.6251 125.891 88.4376 121.312 91.9063 117.094C96.5708 111.046 101.803 105.458 107.531 100.406C113.438 95.0937 119.047 89.625 125.406 84.7812C133.622 78.4036 142.374 72.7472 151.563 67.8749C159.097 64.0322 166.868 60.6713 174.828 57.8124C179.844 55.8906 185.313 55.0156 190.453 53.3749C196.28 51.5099 202.351 50.5148 208.469 50.4218C212.453 50.2812 216.281 49.8281 220.281 49.3906C223.828 49.0937 227.375 48.7968 231.219 48.3593C230.932 48.7277 230.686 49.1258 230.484 49.5468C228.922 51.9062 227.094 54.2343 225.469 56.6406C224.141 58.5624 222.656 60.6249 221.328 62.5468C218.969 65.6718 216.453 68.7968 214.234 71.9218C210.844 76.7968 207.734 81.8124 204.188 86.6874C200.641 91.5624 196.797 95.8437 193.109 100.422C188.234 106.766 183.734 113.266 178.781 119.625C174.344 125.687 169.625 131.437 165.344 137.5C161.5 142.812 158.109 148.437 154.406 153.891C148.938 162.016 143.469 169.984 138.016 178.109C133.734 184.359 129.453 190.375 125.016 196.578C124.687 196.955 124.282 197.259 123.828 197.469C123.531 197.766 122.938 198.062 122.938 198.359C122.782 199.364 122.536 200.352 122.203 201.312C121.016 203.531 119.844 205.75 118.516 207.812C117.781 209 116.75 210.031 115.859 211.203C115.563 211.062 115.422 210.906 115.125 210.906C115.719 209.422 118.25 208.547 117.047 206.328C116.313 207.516 115.563 208.547 114.828 209.719L113.063 213.266C113.656 213.703 114.625 214 113.656 214.828C113.219 215.562 112.766 216.391 112.328 217.187C112.484 217.187 112.484 217.328 112.625 217.328C113.063 216.734 113.516 216.297 113.953 215.766C114.094 215.766 114.25 215.922 114.391 215.922C113.853 217.372 113.162 218.76 112.328 220.062C111.475 221.229 110.416 222.229 109.203 223.016C109.359 223.156 110.391 223.609 110.531 223.75C110.969 223.156 111.125 223.453 111.563 222.859C111.859 223.297 112.297 222.562 112.453 223C112.86 222.557 113.206 222.064 113.484 221.531C113.719 220.812 114.104 220.15 114.613 219.59C115.122 219.03 115.744 218.584 116.438 218.281C117.004 218.003 117.522 217.633 117.969 217.187C122.406 212.609 126.984 208.172 130.969 203.312C137.219 195.781 142.781 187.953 148.688 180.266C151.203 177.016 154.156 173.766 156.813 170.672C157.109 170.828 157.406 170.828 157.547 170.969C157.25 174.094 156.953 177.312 156.813 180.344C156.375 185.812 156.078 191.281 155.625 196.891C155.484 199.109 155.625 201.328 155.484 203.531C155.484 204.125 155.047 204.562 155.047 205.094C155.047 206.562 155.484 208.219 155.484 209.672C155.047 215.141 154.453 220.453 154 225.922C154.017 227.09 154.266 228.242 154.734 229.312C154.513 229.087 154.267 228.888 154 228.719C154.763 237.167 154.862 245.661 154.297 254.125C154.891 253.969 155.188 253.828 155.188 253.531C155.406 252.501 155.553 251.457 155.625 250.406C155.7 249.47 155.7 248.53 155.625 247.594V246.125C155.992 243.433 156.139 240.716 156.063 238C155.718 235.148 155.818 232.259 156.359 229.437C156.656 228.25 156.219 226.781 156.953 225.297V227.516C157.125 235.945 156.78 244.378 155.922 252.766C155.781 253.5 156.359 254.828 154.734 254.687C154.578 254.687 154.438 255.422 154.141 255.875C153.406 257.344 155.031 259.266 153.547 260.75C153.25 261.047 153.844 262.312 153.984 263.266C153.984 263.562 154.141 263.859 153.984 264C153.391 265.031 153.391 265.031 154.281 265.187C154.438 268.437 154.719 271.437 154.875 274.562H155.313C156.349 268.888 156.94 263.141 157.078 257.375C157.28 259.781 157.332 262.197 157.234 264.609C157.234 268.453 157.078 272.141 156.938 275.984C156.911 276.732 156.812 277.475 156.641 278.203C156.356 280.255 155.912 282.282 155.313 284.266C154.912 286.06 154.811 287.908 155.016 289.734V295.344C155.016 295.5 155.453 295.937 155.453 296.531C155.594 297.859 154.859 299.187 155.297 300.672C155.453 300.969 155.156 301.406 155 301.703C154.809 302.119 154.76 302.585 154.859 303.031L155.297 305.25C155.297 305.391 155.453 305.547 155.594 305.844C155.696 305.456 155.749 305.057 155.75 304.656C158.266 304.953 156.938 307.172 158.109 308.344C157.516 308.641 157.078 308.781 157.078 308.937C157.288 309.438 157.434 309.963 157.516 310.5C157.49 311.786 157.391 313.069 157.219 314.344C157.219 317.734 157.063 321.141 157.063 324.391C157.063 324.828 157.219 325.281 157.219 325.719C157.219 326.156 157.063 326.312 157.063 326.75V329.875H157.656C157.359 330.352 157.014 330.797 156.625 331.203C156.484 331.203 156.031 331.203 156.031 331.062V312.594H153.859C154.141 320.982 153.744 329.379 152.672 337.703C151.254 337.93 149.825 338.076 148.391 338.141C143.813 338.141 139.234 338.141 134.656 338.281C129.188 338.281 123.875 338.437 118.406 338.437C115.75 338.437 112.938 338.734 110.281 338.734C106.734 338.734 103.047 338.297 99.5001 338.297C94.0313 338.297 88.7188 338.734 83.2501 338.891C79.2657 339.031 75.2813 339.031 71.2813 339.187C68.6251 339.328 65.9688 339.484 63.3126 339.781C62.058 340.027 60.8249 340.371 59.6251 340.812C58.8404 340.738 58.0504 340.738 57.2657 340.812C55.7813 341.109 54.4532 342 52.9845 342.297C50.7657 342.734 50.172 343.328 50.4688 345.547V347.016C50.1621 346.723 49.8148 346.475 49.4376 346.281C49.3259 346.294 49.2217 346.344 49.1407 346.422C49.2813 346.859 49.5782 347.156 49.7345 347.609C50.3282 347.312 51.0626 346.578 51.6563 346.578H53.7188C53.422 346.578 53.2813 347.469 52.8282 348.141C54.0157 347.703 54.7501 347.406 55.4845 347.109C55.5879 347.496 55.6353 347.896 55.6251 348.297C57.5213 347.91 59.4648 347.81 61.3907 348C67.1745 349.328 73.0507 350.216 78.9688 350.656C82.8126 350.953 86.5001 351.094 90.3438 351.25C95.8126 351.547 101.281 351.844 106.734 351.844C111.313 351.844 115.75 351.406 120.328 351.406C126.672 351.406 133.031 351.703 139.375 351.844C140.703 351.844 142.188 351.687 143.656 351.687H154.438C164.031 351.391 173.641 351.25 183.234 350.953C188.703 350.812 194.313 350.516 199.781 350.359L216.609 349.922C223.109 349.781 229.609 349.781 235.953 349.625C240.828 349.625 245.547 349.484 250.422 349.328C255.891 349.172 261.5 348.734 266.969 348.437C269.922 348.297 272.875 348 275.828 347.703C279.375 347.406 283.063 346.969 286.609 346.812C291.922 346.516 297.391 346.375 302.703 346.078C309.344 345.641 316 345.047 322.781 344.891C329.031 344.594 335.281 344.75 341.531 344.594C347 344.453 352.469 344.156 358.078 344L367.453 343.562C367.453 343.562 373.703 343.422 376.828 343.125C382.141 342.828 387.469 342.234 392.781 342.094C396.172 341.953 399.578 342.094 402.969 341.953C408.438 341.797 414.047 341.516 419.516 341.516C421.578 341.516 423.797 341.812 426.453 341.953C425.266 342.984 424.531 343.516 423.641 344.312C424.253 344.495 424.845 344.741 425.406 345.047C425.406 345.203 425.266 345.344 425.266 345.641C424.531 345.641 423.797 345.797 423.047 345.797C422.632 346.589 422.332 347.436 422.156 348.312H424.813C423.781 348.312 422.891 349.641 421.859 350.531C422.016 350.672 422.156 350.672 422.297 350.828C420.734 350.234 419.641 350.531 419.047 352.156C419.431 352.276 419.833 352.323 420.234 352.297C420.094 352.734 419.938 353.187 419.797 353.766C419.612 354.079 419.51 354.433 419.5 354.797L419.063 354.359C419.088 354.055 419.04 353.75 418.922 353.469C418.031 354.359 416.703 354.953 417.438 356.859C416.844 357.156 416.109 357.453 415.375 357.891C415.604 358.215 415.803 358.561 415.969 358.922C414.641 359.062 413.313 359.359 413.609 360.984C414.203 361.125 414.797 361.422 415.172 361.578C414.438 361.875 413.703 362.312 412.953 362.609C412.797 362.906 412.656 363.641 412.359 363.797C410.297 364.234 411.469 364.984 412.063 365.719C411.653 366.019 411.207 366.266 410.734 366.453C411.123 366.561 411.478 366.765 411.766 367.047C411.436 367.268 411.091 367.466 410.734 367.641C411.016 367.816 411.314 367.963 411.625 368.078C411.031 368.516 410.292 369.104 409.406 369.844C409.383 370.097 409.432 370.352 409.547 370.578C408.888 371.202 408.296 371.893 407.781 372.641C407.318 373.654 406.796 374.64 406.219 375.594C403.53 379.325 400.38 382.701 396.844 385.641C395.36 386.748 393.975 387.982 392.703 389.328C390.047 391.844 387.688 394.641 384.891 397.016C381.203 400.141 377.359 402.922 373.375 405.734C368.5 409.125 363.625 412.531 358.75 415.781C356.094 417.547 353.141 418.906 350.328 420.469C347.516 422.031 344.859 423.594 342.063 425.156C340.388 426.518 338.612 427.751 336.75 428.844C331.875 430.906 326.703 432.687 321.688 434.609C321.25 434.75 320.953 434.906 320.5 435.047C316.813 436.609 313.266 438.437 309.563 439.734C306.132 440.896 302.63 441.835 299.078 442.547C297.801 442.671 296.517 442.718 295.234 442.687C292.719 443.125 290.219 443.719 287.703 444.016C281.203 444.906 274.703 445.484 268.203 446.375C264.359 446.812 260.672 447.562 256.828 447.937C254.172 448.094 251.359 447.797 248.703 447.797C246.741 447.991 244.766 448.038 242.797 447.937C239.672 447.5 236.547 446.75 233.422 446.172C232.663 445.91 231.847 445.862 231.063 446.031C229.875 446.625 228.844 445.734 227.672 446.031C226.938 446.172 226.203 445.594 225.453 445.594C224.703 445.594 224.125 445.734 223.391 445.594C221.834 445 220.182 444.698 218.516 444.703C216.644 444.577 214.802 444.177 213.047 443.516L205.234 441.75C204.199 441.432 203.207 440.986 202.281 440.422C201.883 440.677 201.426 440.828 200.953 440.859C198.45 440.599 195.975 440.107 193.563 439.391C191.632 438.395 189.485 437.89 187.313 437.922C186.719 438.062 186.281 437.766 185.75 437.766C185.313 437.172 184.859 436 184.422 436C181.469 436.156 179.734 433.641 177.188 432.875C175.859 432.437 174.828 430.953 173.5 430.516C170.25 429.187 167.594 426.375 163.906 425.937C162.643 425.655 161.409 425.258 160.219 424.75C160.578 425.273 160.975 425.769 161.406 426.234L161.109 426.531C157.125 424.172 153.141 421.844 149.141 419.594C148.547 419.437 148.109 418.859 147.656 418.562L143.672 415.906C143.234 415.609 142.344 415.172 142.344 415.312C141.453 416.344 140.578 415.469 139.984 415.172C136 412.359 131.422 410.594 127.578 407.484C125.862 406.404 124.287 405.112 122.891 403.641C120.844 401.237 118.329 399.276 115.5 397.875C113.281 396.687 111.219 395.359 109.156 394.031C108.562 393.712 108.06 393.246 107.699 392.677C107.338 392.107 107.129 391.455 107.094 390.781C107.094 389.75 106.656 388.719 105.328 389.312C104.734 388.422 104.141 387.391 103.406 387.094C101.802 386.266 100.354 385.166 99.1251 383.844C97.797 382.656 96.7657 381.031 95.1407 380.453C92.5272 379.103 90.2928 377.121 88.6407 374.687C84.5001 369.812 80.8282 364.5 76.9688 359.328C76.5601 358.896 76.1158 358.499 75.6407 358.141L75.4845 358.297C76.2188 359.766 76.9688 361.109 77.7032 362.578C77.547 362.719 77.2657 362.875 77.1095 363.016C76.2188 361.984 75.1876 360.953 74.297 359.891C74.1407 360.047 74.0001 360.187 73.8595 360.187L84.3751 377.281C85.2657 378.609 85.9376 379.937 86.8907 381.266C86.7216 381.447 86.5203 381.595 86.2969 381.703C85.494 381.532 84.7363 381.193 84.0738 380.709C83.4113 380.224 82.8589 379.604 82.4532 378.891C82.0276 377.74 81.2282 376.764 80.1829 376.121C79.1376 375.478 77.9069 375.205 76.6876 375.344C76.3723 374.277 76.127 373.192 75.9532 372.094C75.263 372.106 74.5729 372.059 73.8907 371.953C75.9532 375.203 77.7345 378.016 79.6563 381.328L78.1876 380.437C80.8438 383.25 82.7657 386.781 86.1563 388.562C86.8907 391.953 90.7345 393.578 91.6251 396.828L89.5626 396.391C88.3751 394.922 87.047 393.437 85.7188 391.812C85.9801 392.778 86.4316 393.681 87.047 394.469C88.71 396.716 90.5379 398.836 92.5157 400.812C93.2501 401.547 94.2813 401.844 94.2813 403.172C94.6324 402.861 95.034 402.613 95.4688 402.437C95.2363 402.864 95.0378 403.308 94.8751 403.766C95.4688 403.766 95.9063 403.906 96.3595 403.906C96.6563 404.797 96.2032 406.125 97.922 405.828C98.0782 405.828 98.2188 405.969 98.3595 406.125C99.0938 408.047 100.281 408.047 101.906 407.312C102.112 407.244 102.333 407.236 102.543 407.288C102.754 407.341 102.945 407.452 103.094 407.609C103.828 409.172 104.859 409.375 106.219 408.203C106.219 408.937 106.359 409.672 106.359 410.266H107.031C107.031 409.969 106.891 409.531 106.891 408.797C107.625 409.391 108.078 409.687 108.375 409.984C109.713 412.085 111.356 413.976 113.25 415.594C116.063 417.953 118.563 420.469 121.219 422.687C126.442 426.868 132.026 430.575 137.906 433.766C145 437.75 151.781 442.031 159.031 445.875C167.775 450.347 177.061 453.672 186.656 455.766C190.203 456.5 193.594 457.234 197.141 458.125C200.266 459.016 203.391 460.344 206.516 461.078C211.203 462.109 216.109 463 220.844 463.891L224.094 464.328V464.625C225.422 464.625 227.047 464.031 227.344 464.469C228.078 465.656 228.672 465.062 229.563 464.906C230.674 464.655 231.815 464.555 232.953 464.609C237.026 465.075 241.12 465.32 245.219 465.344C246.109 465.344 247.438 464.609 248.172 466.078C248.469 465.922 248.609 465.781 248.906 465.641C249.5 465.484 250.234 465.484 250.828 465.344V465.625C250.442 465.759 250.045 465.859 249.641 465.922C250.171 466.032 250.693 466.178 251.203 466.359C250.994 466.558 250.743 466.707 250.469 466.797C249.999 466.989 249.553 467.235 249.141 467.531C254 468.641 259.047 468.641 263.906 467.531V466.641H264.5C264.531 466.956 264.632 467.26 264.797 467.531C271.5 468.112 278.249 467.254 284.594 465.016C285.188 465.75 285.625 466.781 286.516 465.312C286.813 464.875 287.547 464.719 288.078 464.578C289.38 464.054 290.796 463.876 292.188 464.062C293.516 464.5 293.953 463.328 295 463.328C296.682 463.335 298.361 463.189 300.016 462.891C300.906 462.75 301.781 462.297 302.828 462C302.838 461.921 302.83 461.841 302.806 461.766C302.782 461.69 302.741 461.621 302.688 461.562C301.653 461.397 300.61 461.297 299.563 461.266C301.328 460.375 302.953 459.703 304.578 458.906C304.578 459.047 304.734 459.047 304.734 459.203C304.297 459.344 304 459.937 303.406 459.937H305.469C305.031 459.937 304.438 461.266 303.703 462.156L318.625 458.469V458.172C318.031 458.312 317.594 458.312 317.141 458.469C317 455.344 320.391 456.406 321.578 454.625C320.094 455.062 318.625 455.516 317.141 455.812V455.516C322.156 453.297 327.328 451.078 332.359 448.875C332.359 449.031 332.516 449.031 332.516 449.172C331.625 449.766 330.75 450.203 329.391 450.937C330.036 451.003 330.678 451.102 331.313 451.234C331.313 451.672 331.313 451.969 331.172 452.125C333.688 451.969 333.094 449.766 333.828 448.437C334.266 448.578 334.859 448.875 335.313 448.734C336.614 448.406 337.897 448.01 339.156 447.547C340.641 447.109 342.109 446.656 343.594 446.062C345.953 445.031 348.172 443.703 350.531 442.516C351.118 442.442 351.711 442.442 352.297 442.516C352.706 442.461 353.076 442.248 353.328 441.922C353.922 441.484 354.516 440.594 354.891 440.734C355.318 440.855 355.764 440.889 356.204 440.836C356.645 440.782 357.07 440.641 357.455 440.422C357.84 440.202 358.178 439.908 358.449 439.557C358.719 439.205 358.917 438.804 359.031 438.375C359.188 438.375 359.188 438.219 359.328 438.219C360.034 437.652 360.775 437.13 361.547 436.656C364.797 434.891 367.891 433.109 371.141 431.344C371.281 431.203 371.578 431.344 371.875 431.344C372.323 431.378 372.773 431.331 373.203 431.203C375.125 430.312 376.891 429.281 378.672 428.25C378.234 428.094 378.672 427.953 377.203 427.812V427.5C378.159 427.331 379.099 427.085 380.016 426.766L379.719 426.469C383.563 422.625 388.438 419.828 392.125 416.578C392.61 416.721 393.107 416.82 393.609 416.875C393.727 416.49 393.78 416.089 393.766 415.687C394.325 414.881 394.969 414.137 395.688 413.469C398.938 410.516 402.484 408 405.438 404.906C409.719 400.625 413.859 396.187 417.703 391.609C421.339 387.56 424.696 383.269 427.75 378.766C431.891 372.422 435.438 365.922 439.125 359.266C441.781 354.578 444.141 349.891 446.813 345.094C447.109 344.656 447.703 344.062 448.141 344.062C452.125 343.625 456.109 343.328 459.953 342.875C460.94 342.607 461.886 342.208 462.766 341.687C462.328 340.953 462.031 340.125 461.578 339.328C461.125 338.531 460.109 337.766 459.516 336.812C458.936 336.027 458.438 335.184 458.031 334.297C457.594 333.562 457.141 332.969 456.703 332.234C455.777 330.608 454.938 328.934 454.188 327.219C453.956 326.732 453.853 326.194 453.891 325.656C456.547 319.891 457.578 313.687 460.141 307.937C462.294 301.813 463.782 295.474 464.578 289.031C465.609 282.969 466.141 276.922 466.938 270.859C467.375 266.578 467.969 262.437 468.125 258.156C468.782 251.678 468.928 245.158 468.563 238.656L468.578 238.594ZM97.2813 403.422C96.2501 402.234 95.3595 400.906 94.3282 399.734L94.7657 399.297C96.3282 401.078 98.0157 402.844 99.6407 404.766C98.7764 404.478 97.9754 404.027 97.2813 403.437V403.422ZM99.6407 404.75C100.078 404.609 100.531 404.609 100.969 404.453C101.406 405.187 101.703 406.016 102.156 406.969C100.094 406.828 99.0313 405.937 99.6407 404.75ZM253.234 465.687V465.312L261.5 464.422V464.859C258.763 465.302 256.003 465.599 253.234 465.75V465.687ZM290.453 461.844C288.391 462.281 286.172 462.578 284.109 462.875C283.375 463.031 282.547 463.766 282.188 462.437C281.891 462.578 281.594 462.578 281.297 462.734C282.031 464.953 283.813 463.172 285.281 464.062C282.031 464.5 278.938 464.797 275.906 465.25V464.953L278.719 464.516V464.062C277.246 463.889 275.765 463.79 274.281 463.766C273.844 463.766 273.25 464.359 272.813 464.5C272.187 464.682 271.541 464.781 270.891 464.797C268.375 464.937 265.875 464.937 263.5 465.094C263.359 465.094 263.063 464.937 262.906 464.937V464.5L292.438 460.516C292.578 460.812 292.578 461.109 292.734 461.406C291.981 461.466 291.236 461.613 290.516 461.844H290.453ZM292.672 460.359C296.063 459.922 299.172 459.625 302.422 459.172C295.625 461.094 293.406 461.391 292.672 460.359ZM164.063 162.25C168.75 155.75 173.656 149.25 178.391 142.609C179.859 140.687 181.047 138.625 182.531 136.703C183.057 136.137 183.65 135.639 184.297 135.219L184.141 134.922C184.687 134.326 185.178 133.683 185.609 133C186.287 131.761 186.877 130.477 187.375 129.156C187.531 128.92 187.733 128.718 187.969 128.562C190.031 129.594 190.031 127.375 190.781 126.641C192.109 125.172 193.438 123.516 194.625 122.062C195.547 120.941 196.387 119.756 197.141 118.516C197.281 118.078 196.844 117.328 196.703 116.75H196.266C196.703 116.453 197.156 116.016 197.594 115.719C197.75 115.719 197.75 115.719 197.891 115.578C198.781 114.25 199.656 112.922 200.547 111.734C202.307 109.337 204.234 107.065 206.313 104.937C206.016 105.672 205.719 106.422 205.422 107C205.563 107 205.563 107.156 205.719 107.156C207.484 104.797 209.406 102.578 211.188 100.219C211.031 100.078 210.891 99.9218 210.75 99.9218C210.016 100.656 209.422 101.391 208.688 102.141C208.531 102 208.391 101.844 208.25 101.844C209.734 99.9218 211.203 97.9999 212.688 95.7812C213.124 96.4982 213.521 97.2389 213.875 97.9999C214.469 96.5156 215.063 95.4843 215.438 94.4531C215 94.8906 214.406 95.3437 213.969 95.7812L213.516 95.3124L216.172 91.3281C218.984 87.3437 221.781 83.2031 224.594 79.2187C225.625 77.7343 226.953 76.5624 227.844 75.0781C231.085 69.7984 234.639 64.7164 238.484 59.8593C239.293 58.8523 240.182 57.9118 241.141 57.0468C241.875 56.1562 242.469 56.4531 243.063 57.2031C247.047 62.2187 251.031 67.3906 255.031 72.4218C257.984 76.1093 260.938 79.6562 263.75 83.4999C267.141 88.1874 270.391 92.8749 273.797 97.6718C277.641 103.141 281.484 108.609 285.172 114.219C290.781 122.484 296.109 130.766 301.719 139.031C305.859 145.094 309.984 151 313.984 157.047H306.453C299.516 156.891 292.391 156.312 285.484 156.609C276.109 157.047 266.438 158.078 256.984 158.828C245.016 159.859 232.906 160.016 220.953 160.016C216.672 160.016 212.391 160.609 208.109 160.906C202.938 161.203 197.922 161.5 192.75 161.641C186.688 161.937 180.781 162.078 174.734 162.234C171.344 162.391 167.797 162.234 164.094 162.234L164.063 162.25ZM333.438 230.187V231.516C333.297 231.516 333.141 231.656 332.844 231.656C332.25 229.594 331.656 227.375 330.922 225.312C329.58 220.932 327.639 216.757 325.156 212.906C322.203 208.766 319.547 204.484 316.594 200.203C315.786 199.195 314.898 198.255 313.938 197.391C310.978 193.823 307.551 190.669 303.75 188.016C297.873 184.368 291.694 181.232 285.281 178.641C283.499 177.873 281.771 176.986 280.109 175.984H283.656L308.906 175.547C314.375 175.391 319.688 175.391 325.156 175.109C325.727 175.064 326.298 175.188 326.799 175.466C327.299 175.744 327.706 176.163 327.969 176.672C329.297 178.891 330.625 181.094 332.109 183.312C332.344 183.67 332.494 184.076 332.547 184.5C332.547 187.75 332.547 191.141 332.688 194.391C332.828 197.641 333.125 201.031 333.281 204.437C333.438 207.844 332.984 211.375 333.125 214.922C333.281 219.937 333.422 225.109 333.422 230.281L333.438 230.187ZM174.531 180.703C181.469 180.406 188.125 179.969 194.844 179.672C200.156 179.375 205.625 179.234 210.938 178.937C213.099 178.715 215.277 178.715 217.438 178.937C215.076 180.04 212.803 181.326 210.641 182.781C207.984 184.547 205.469 186.922 202.828 188.844C200.173 190.835 197.747 193.114 195.594 195.641C192.781 199.031 189.688 201.984 186.734 205.234C184.532 207.491 182.446 209.859 180.484 212.328C177.969 215.578 175.797 219.125 173.391 222.812C174.125 208.75 174.953 194.906 174.422 180.719L174.531 180.703ZM270.969 322.781C266.215 324.119 261.383 325.162 256.5 325.906C252.281 326.35 248.036 326.496 243.797 326.344C239.953 326.344 236.266 326.203 232.422 325.906C228.059 325.695 223.763 324.744 219.719 323.094C216.172 321.531 212.484 319.969 208.938 318.219C205.22 316.575 201.895 314.157 199.188 311.125C197.053 308.824 194.733 306.702 192.25 304.781C192.687 306.564 193.81 308.103 195.375 309.062C194.641 309.953 193.609 309.5 192.125 307.141C191.745 307.368 191.348 307.567 190.938 307.734C191.375 306.703 191.828 305.672 192.266 304.781C191.672 303.594 190.938 302.266 190.344 301.094C189.155 299.159 188.024 297.189 186.953 295.187C186.656 294.75 186.656 294.297 186.359 293.859C185.626 293.01 184.938 292.124 184.297 291.203C183.17 289.313 181.939 287.488 180.609 285.734C180.609 286.172 180.75 286.625 180.75 287.203C180.638 287.216 180.534 287.266 180.453 287.344L177.328 279.812C177.172 279.812 177.172 279.812 177.031 279.969L179.688 289.719C179.531 289.719 179.391 289.875 179.25 289.875C178.77 289.291 178.37 288.644 178.063 287.953C177.766 286.766 176.875 286.766 176.141 287.219C175.908 287.444 175.733 287.722 175.63 288.029C175.526 288.337 175.498 288.664 175.547 288.984C176.578 291.5 177.766 294 178.938 296.516C179.218 297.379 179.563 298.22 179.969 299.031C180.125 299.328 180.563 299.625 180.563 300.062C181.063 301.237 181.653 302.37 182.328 303.453C183.656 305.219 185.141 307 186.469 308.766C187.797 310.531 188.984 312.453 190.156 314.234C190.313 314.531 190.75 314.531 190.891 314.672C191.625 316.891 194.141 318.516 195.906 317.625C196.344 321.016 200.047 322.203 201.516 325.437C200.064 324.853 198.636 324.212 197.234 323.516C197.094 323.672 197.094 323.812 196.938 324.109C198.709 324.957 200.435 325.896 202.109 326.922C203.592 327.772 205.021 328.712 206.391 329.734C208.195 331.322 210.39 332.401 212.75 332.859C212.695 332.642 212.594 332.44 212.453 332.266C216.594 334.187 220.875 336.25 224.125 337.875C208.766 338.172 192.375 338.469 175.391 338.766C175.391 335.953 175.25 333.297 175.25 330.5C175.371 329.374 175.418 328.241 175.391 327.109C174.953 320.312 174.953 313.516 174.063 306.875C173.301 299.861 173.055 292.8 173.328 285.75C173.469 281.906 173.172 277.937 173.031 274.078C173.031 268.906 173.031 263.891 173.172 258.719C173.232 257.999 173.434 257.298 173.766 256.656H174.203C174.344 256.953 174.203 257.391 174.5 257.547C174.938 257.984 175.688 258.734 175.984 258.578C176.875 257.984 178.203 257.391 178.5 256.516C179.198 254.777 179.548 252.92 179.531 251.047C179.581 249.904 179.997 248.809 180.719 247.922C180.993 247.447 181.238 246.957 181.453 246.453C180.859 246.016 180.266 245.719 179.531 245.125C180.125 243.562 179.969 241.578 182.188 240.687C182.484 240.531 182.484 239.797 182.625 239.359L183.063 235.672C183.27 235.998 183.516 236.297 183.797 236.562C183.874 236.403 183.974 236.256 184.094 236.125C184.094 235.531 183.953 234.359 184.094 234.359C185.859 234.062 185.125 232.141 186.016 231.234C186.156 231.094 185.859 230.641 185.859 230.344C185.859 230.047 185.859 229.609 186.016 229.609C188.078 229.172 187.781 226.953 189.141 225.922C189.578 225.625 189.734 225.187 190.328 224.453C191.516 226.516 189.438 227.578 189.297 229.031C191.813 227.547 192.547 224.016 191.063 222.969C191.65 222.518 192.175 221.993 192.625 221.406C194.188 219.641 196.016 218.016 197.5 216.234C198.531 214.906 199.063 213.281 200.156 211.953C200.921 211.2 201.822 210.601 202.813 210.187C205.507 208.907 207.842 206.98 209.609 204.578C209.977 204.245 210.375 203.947 210.797 203.687C211.234 203.391 212.125 203.391 212.266 202.953C212.406 202.516 211.969 201.922 211.672 201.484C212.266 201.187 212.859 200.594 214.031 200.016C213.594 200.906 213.438 201.484 213.141 202.078L213.875 202.812C215.203 201.781 217.266 200.594 218.563 199.687C218.563 199.547 217.828 198.953 217.828 198.953C216.938 199.391 215.609 200.141 214.281 200.719C214.578 200.281 214.578 199.984 214.719 199.828C216.748 198.458 218.868 197.226 221.063 196.141C226.234 193.781 231.406 191.453 236.563 189.203C237.582 188.929 238.648 188.881 239.688 189.062C240.089 189.089 240.491 189.041 240.875 188.922C243.234 188.187 245.563 187.453 247.969 186.859C249.028 186.569 250.121 186.422 251.219 186.422C255.656 186.562 260.078 186.562 264.516 186.859C266.381 187.027 268.218 187.425 269.984 188.047C272.26 188.831 274.478 189.771 276.625 190.859C279.12 192.197 281.536 193.679 283.859 195.297C288.141 198.109 292.125 201.203 296.359 203.719C300.362 206.22 303.786 209.543 306.406 213.469C310.073 217.685 312.928 222.542 314.828 227.797L317.047 237.547C317.839 239.306 318.193 241.23 318.078 243.156C317.344 246.844 316.75 250.687 316.156 254.375C315.793 255.819 315.645 257.309 315.719 258.797C315.675 263.231 314.56 267.589 312.469 271.5C311.875 272.828 310.984 274.156 310.25 275.641C310.614 275.897 311.014 276.097 311.438 276.234L312.766 273.578C312.906 273.578 312.906 273.578 313.063 273.734C312.328 275.797 311.734 278.016 311 280.078C309.234 284.656 307.453 289.453 305.234 293.812C303.808 296.214 302.243 298.53 300.547 300.75C299.063 302.812 297.891 305.031 296.406 307C295.163 308.692 293.672 310.188 291.984 311.437C288.035 314.462 283.89 317.223 279.578 319.703C276.852 321.218 273.912 322.314 270.859 322.953L270.969 322.781ZM192.25 314.969L192.109 315.109C191.736 314.968 191.388 314.768 191.078 314.516L187.5 309.203C187.341 308.995 187.231 308.753 187.179 308.495C187.128 308.238 187.136 307.972 187.203 307.719C188.766 310.234 190.453 312.594 192.219 314.953L192.25 314.969ZM284.109 335.203C290.454 332.435 296.27 328.586 301.297 323.828C302.013 323.064 302.803 322.373 303.656 321.766C309.616 317.827 314.696 312.699 318.578 306.703C322.901 299.709 326.799 292.462 330.25 285C330.517 284.463 330.815 283.941 331.141 283.437C331.17 300.177 332.455 316.89 334.984 333.437L284.172 335.203H284.109ZM433.875 330.781C433.719 331.078 433.438 331.375 433.281 331.672C433.15 331.237 433.05 330.793 432.984 330.344C432.094 332.703 430.172 331.531 428.844 331.531C420.875 331.672 412.75 331.672 404.766 331.672C397.078 331.672 389.266 331.672 381.578 331.828C379.063 331.828 376.406 332.422 373.891 332.562C367.828 332.859 361.781 333 355.719 333.156C355.281 333.156 354.828 332.422 354.156 331.828C353.896 332.294 353.598 332.739 353.266 333.156C353.125 332.859 352.828 332.562 352.531 332.125C352.41 332.529 352.264 332.926 352.094 333.312H351.563C351.121 331.316 350.823 329.289 350.672 327.25C350.672 322.812 351.109 318.391 351.266 313.953C351.406 311.891 351.266 309.969 351.266 308.047L352.828 309.234C353.091 308.72 353.389 308.224 353.719 307.75C353.501 307.634 353.301 307.486 353.125 307.312C353.422 307.172 353.719 306.875 353.719 306.719C353.906 306.339 354.053 305.941 354.156 305.531C354.095 304.582 353.949 303.641 353.719 302.719C353.798 302.728 353.878 302.721 353.953 302.697C354.029 302.672 354.098 302.632 354.156 302.578L355.047 307H355.484C354.891 305.969 356.813 305.078 355.188 303.875C355.047 303.734 355.344 302.844 355.344 302.406C354.898 301.443 354.501 300.457 354.156 299.453C354.475 299.254 354.823 299.106 355.188 299.016C354.713 298.742 354.223 298.497 353.719 298.281C355.188 296.953 355.188 296.219 353.875 294.734C354.172 294.594 354.469 294.594 354.469 294.437C354.517 293.102 354.417 291.766 354.172 290.453C353.875 288.984 354.609 287.203 352.406 286.312C352.544 286.736 352.744 287.136 353 287.5C352.687 287.61 352.388 287.757 352.109 287.937C350.188 286.172 351.375 283.797 350.922 281.141C351.776 281.391 352.616 281.688 353.438 282.031C353.141 281 352.406 279.812 351.969 278.484H351.375V268.75C351.375 268.891 352.406 268.891 352.938 269.047C352.938 268.906 353.078 268.75 353.078 268.609C352.641 268.016 352.047 267.422 351.516 266.687L351.813 266.391C351.094 265.194 350.881 263.761 351.219 262.406V252.062C352.688 253.531 350.484 255.453 352.688 256.344V254.844H352.547C352.391 252.625 352.391 250.406 352.25 248.203H351.953C351.813 248.5 351.813 248.641 351.656 248.937H351.359L352.25 213.641C353.771 215.402 355.156 217.277 356.391 219.25C359.986 225.244 363.985 230.986 368.359 236.437C371.906 241.312 375.156 246.625 378.406 251.656C382.391 257.719 386.219 263.766 390.219 269.828C393.172 274.406 396.281 278.984 399.375 283.422C402.188 287.406 405.141 291.234 408.094 295.094C410.609 298.484 413.266 301.891 415.766 305.281C418.719 309.422 421.672 313.547 424.625 317.547C426.094 319.609 427.75 321.687 429.313 323.797C430.239 324.855 431.288 325.799 432.438 326.609C432.229 326.614 432.023 326.56 431.844 326.453C432.161 326.916 432.505 327.359 432.875 327.781C434.438 328.672 434.641 329.547 433.766 330.906L433.875 330.781ZM441.406 293.859V292.828C441.406 293.125 441.547 293.562 441.406 293.859ZM446.422 228.734C445.991 228.434 445.593 228.088 445.234 227.703C445.078 228.141 445.234 228.594 444.938 229.172C444.797 228.734 443.75 228.875 443.75 228.437C443.594 230.5 444.641 232.578 444.484 234.687C444.922 234.391 446.703 234.25 447.141 233.797C447.304 233.954 447.511 234.058 447.734 234.094C444.781 236.312 445.516 238.531 446.844 241.031C447.141 241.625 448.031 242.797 447.141 243.984C446.844 244.281 447.297 245.172 447.438 245.906H447.875V246.203L446.547 246.641C446.25 246.203 444.484 245.312 444.484 244.578V252.109C445.953 252.547 445.953 254.625 446.547 255.656C446.803 255.292 447.003 254.892 447.141 254.469L447.297 254.609C447.17 255.509 446.971 256.397 446.703 257.266C446.387 258.532 446.142 259.815 445.969 261.109C445.969 261.25 446.266 261.547 446.266 261.703C445.306 265.517 444.859 269.443 444.938 273.375C444.5 276.187 444.938 279.141 444.641 282.094C444.294 284.682 443.804 287.248 443.172 289.781C443.031 290.219 442.734 290.375 441.984 290.672C442.23 289.15 442.177 287.595 441.828 286.094C441.688 286.094 439.766 285.062 439.609 285.062C439.95 287.509 440.472 289.928 441.172 292.297C440.734 292.156 438.953 291.109 438.813 291.109C438.516 292.875 438.516 295.25 438.375 297.172C438.219 298.641 436.891 299.984 436.813 301.609C436.813 302.5 437.844 303.078 437.703 304.562H438.891C438.891 301.609 440.219 298.953 440.219 295.844H440.625C440.766 296.141 441.219 296.437 441.063 296.578C440.603 298.211 440.356 299.897 440.328 301.594C440.328 302.484 441.063 303.359 440.766 304.406C440.453 305.423 440.254 306.471 440.172 307.531C440.029 307.051 439.93 306.56 439.875 306.062L438.313 305.922C438.172 306.812 439.344 307.687 439.203 308.437C439.047 308.594 438.906 308.594 438.609 308.734L433.734 301.641C429.891 296.031 426.047 290.422 422.219 284.656C421.226 283.244 420.338 281.761 419.563 280.219C414.988 272.364 409.904 264.816 404.344 257.625C400.063 252.156 396.656 246.25 392.672 240.437C388.984 234.969 385.281 229.656 381.594 224.187C380.266 222.422 378.641 220.797 377.453 218.875C373.609 212.812 370.219 206.609 366.375 200.562C363.125 195.547 359.578 190.672 356.188 185.797C355 184.234 353.828 182.406 352.641 180.625C352.455 180.312 352.353 179.957 352.344 179.594C352.047 176.344 351.75 173.094 351.609 170C351.469 166.906 351.906 164.094 351.906 160.984V158.328C351.906 157.594 352.047 157 352.047 156.266C352.188 156.109 352.344 155.828 352.484 155.672C348.203 155.672 343.766 155.531 339.484 155.672C338.263 155.726 337.048 155.467 335.954 154.92C334.86 154.373 333.924 153.556 333.234 152.547C328.016 146.03 323.135 139.25 318.609 132.234C314.031 125.734 309.234 119.391 304.547 113.031C300.703 107.859 296.875 102.844 293.031 97.6718C288.75 91.7656 284.609 85.8593 280.188 79.9531C274.875 72.8593 269.406 65.7812 263.938 58.6874C261.422 55.4374 258.625 52.3437 255.813 48.9374C257.734 49.2343 259.5 49.5312 261.281 49.6718L268.375 50.1093C273.688 50.5468 279.016 50.8437 284.328 51.5937C288.766 52.1874 293.188 53.0781 297.766 53.8124C307.496 55.5254 317.077 57.9965 326.422 61.2031C331.891 62.9687 337.203 65.3437 342.516 67.5468C354.385 72.4677 365.952 78.0869 377.156 84.375C380.322 86.5068 383.115 89.1464 385.422 92.1874C389.266 96.1718 393.109 100.156 396.797 104.297C401.078 109.172 405.063 114.187 409.203 119.219C412.891 123.656 416.734 128.078 420.422 132.516C421.548 133.934 422.591 135.415 423.547 136.953C425.906 140.5 428.563 143.891 430.641 147.734C432.013 150.691 433.146 153.753 434.031 156.891C435.5 161.469 436.984 165.906 438.469 170.484C439.5 173.875 440.391 177.422 441.125 180.969C441.719 183.328 441.563 185.844 442.313 188.203C443.203 191.328 442.313 194.703 443.203 197.797L443.641 198.828C444.234 199.422 444.672 200.016 443.797 200.891C443.641 201.271 443.641 201.698 443.797 202.078C444.076 201.76 444.322 201.415 444.531 201.047C444.531 201.344 444.672 201.484 444.672 201.641C444.599 202.227 444.599 202.82 444.672 203.406C444.754 203.773 444.903 204.123 445.109 204.437C445.486 204.116 445.883 203.819 446.297 203.547C447.45 208.534 447.944 213.65 447.766 218.766C448.404 223.618 448 228.551 446.578 233.234C447.016 231.672 445.984 230.109 446.422 228.656V228.734Z" fill="#DD3735"/>
<path d="M352.547 286.625C352.66 286.643 352.765 286.698 352.844 286.781L352.688 286.625C352.688 286.484 352.688 286.484 352.547 286.625ZM375.875 432.547C374.317 433.805 372.504 434.712 370.563 435.203C370.422 435.062 370.422 434.906 370.266 434.766C371.828 433.734 373.656 432.703 375.281 431.641C375.422 431.937 375.719 432.234 375.875 432.531V432.547ZM98.9531 232.422C100.516 230.359 102.203 228.281 103.969 226.172C104.109 226.312 105.297 226.609 105.453 226.766C103.891 228.828 101.609 231.641 99.9844 233.859C99.6875 233.562 99.25 232.531 98.9531 232.391V232.422ZM57.0156 304.797C55.8281 302.281 54.6563 299.625 53.4688 297.109C53.8819 296.851 54.3288 296.651 54.7969 296.516C56.1887 298.976 57.375 301.547 58.3438 304.203C57.9137 304.428 57.4702 304.627 57.0156 304.797ZM94.6719 233.906C93.7813 235.234 92.9063 236.719 92.0156 238.047C91.875 237.906 90.25 238.641 90.0938 238.484C90.9844 237.156 93.2188 234.797 94.0781 233.469C94.2472 233.65 94.4486 233.798 94.6719 233.906ZM360.063 438.594C360.219 438.594 360.219 438.437 360.359 438.437C361.481 438.616 362.614 438.715 363.75 438.734C361.828 440.062 360.625 439.922 360.063 438.594ZM94.9688 240.094C95.1572 239.622 95.404 239.176 95.7031 238.766C95.9528 238.749 96.1995 238.702 96.4375 238.625C97.0313 237.594 97.0313 236.859 97.625 235.969C97.4844 235.828 97.3281 235.828 97.1875 235.672C96.2969 236.266 95.4219 237 94.5313 237.594C94.6393 237.681 94.7233 237.794 94.7752 237.922C94.8272 238.051 94.8454 238.191 94.8281 238.328C93.6406 238.187 93.2656 238.766 92.6094 240.391C92.4531 240.828 91.7188 240.984 91.0469 241.578C90.9063 241.875 90.75 242.609 90.4531 243.344L90.6094 243.5C90.3957 243.693 90.1462 243.841 89.875 243.938C88.9844 244.828 87.9531 245.5 87.0625 246.453C86.8934 246.877 86.7931 247.326 86.7656 247.781C87.7969 246.75 89.5781 244.828 90.9063 243.641L91.0469 243.781C91.6406 242.891 92.0781 242.016 92.6094 241.125C92.75 241.266 92.75 241.422 92.9063 241.562L91.5781 245.25C91.2813 245.391 90.8438 245.687 90.8438 245.547C90.25 245.984 89.8125 246.578 89.2813 247.031L86.625 248.797C85.1406 250.125 83.6719 251.313 82.0469 252.641C81.0156 254.203 79.9844 255.766 78.7969 257.656C80.5625 257.219 81.0156 257.953 80.8594 259.422C82.9219 259.719 83.0781 258.094 83.6719 256.906C83.8281 256.609 83.9688 256.016 84.2656 255.875C85.5938 254.687 87.0781 253.656 88.5469 252.484C88.7993 252.09 88.9044 251.62 88.8438 251.156C88.8438 251.016 88.1094 251.016 87.6563 250.859C88.9844 249.375 90.9063 246.875 92.2344 245.25C92.9688 244.812 93.7031 244.219 93.7031 243.766C93.5469 242.203 94.5938 241.703 95.7656 241.109C95.578 240.998 95.4158 240.849 95.2893 240.671C95.1628 240.494 95.0749 240.292 95.0313 240.078L94.9688 240.094Z" fill="#DD3735"/>
<path d="M97.9219 238.469C97.3281 239.5 96.7344 240.391 96.1562 241.422L95.3125 240.984C95.1705 242.44 94.6674 243.836 93.8488 245.048C93.0302 246.259 91.9221 247.247 90.625 247.922C91.0817 248.24 91.6323 248.394 92.1875 248.359C92.625 248.219 92.9219 247.469 93.2188 247.031L97.2031 241.266L98.4375 239.063L97.8438 238.469H97.9219ZM48.7344 303.313C49.4687 303.313 50.2187 303.469 51.0937 303.469C51.0937 302.875 51.8281 303.031 51.8281 302.438H52.2656C52.2656 303.172 52.4219 303.766 52.4219 304.5H49.2969C49.1406 304.344 48.5625 303.469 48.7031 303.313H48.7344ZM47.5469 296.516C47.1094 296.078 46.3594 295.625 46.3594 295.188C46.3594 294.75 46.6562 293.859 47.0937 293.125C47.3906 294.156 47.5313 295.047 47.8281 296.078C47.6719 296.219 47.5313 296.375 47.5313 296.516H47.5469ZM51.2344 287.141C51.8281 288.625 52.4219 290.266 53 291.719C52.5766 291.856 52.1763 292.056 51.8125 292.312C51.2187 290.844 50.4844 289.188 49.8906 287.734C50.2889 287.449 50.7406 287.247 51.2188 287.141H51.2344ZM379.984 428.328C380.907 428.028 381.846 427.783 382.797 427.594C381.661 428.413 380.576 429.3 379.547 430.25C379.391 430.094 379.25 429.953 379.109 429.953C379.406 429.359 379.703 428.922 380 428.391L379.984 428.328ZM198.438 116.187C199.328 115.594 200 115.156 200.953 114.625L201.25 114.922C200.359 116.109 199.688 117.281 198.594 118.766C198.453 117.734 198.453 117.203 198.297 116.406C198.156 116.406 198.297 116.406 198.453 116.266L198.438 116.187ZM241.703 190.922L245.984 189C245.869 189.681 245.816 190.372 245.828 191.062C245.35 190.892 244.85 190.792 244.344 190.766C243.453 190.906 241.828 192.094 241.094 192.234C240.938 192.234 241.688 191.047 241.688 190.906L241.703 190.922ZM352.469 316.156C352.766 317.625 355.594 318.375 352.766 319.844C353.203 320.141 353.656 320.281 354.094 320.578C354.057 320.801 353.953 321.008 353.797 321.172C353.5 321.328 352.906 321.609 352.609 321.469C352.312 321.328 352.172 320.875 352.172 320.578C352.172 319.25 352.328 317.922 352.469 316.141V316.156Z" fill="#DD3735"/>
</svg>
