<svg width="500" height="500" viewBox="0 0 500 500" fill="none" xmlns="http://www.w3.org/2000/svg">
<g clip-path="url(#clip0_310_388)">
<path d="M31.25 31.25H468.75V468.75H31.25V31.25Z" fill="#F5DE19"/>
<path d="M325.139 373.052C328.866 380.624 334.658 386.989 341.845 391.412C349.033 395.835 357.324 398.137 365.764 398.052C382.795 398.052 393.686 389.537 393.686 377.74C393.686 363.677 382.498 358.646 363.748 350.443L353.467 346.037C323.779 333.396 304.092 317.568 304.092 284.099C304.092 253.271 327.529 229.787 364.295 229.787C376.197 228.927 388.088 231.591 398.485 237.446C408.883 243.3 417.327 252.087 422.764 262.709L390.623 283.256C388.53 277.989 384.885 273.483 380.171 270.335C375.458 267.187 369.899 265.547 364.232 265.631C361.76 265.383 359.263 265.653 356.901 266.424C354.538 267.195 352.363 268.449 350.512 270.107C348.661 271.765 347.176 273.791 346.152 276.055C345.127 278.318 344.585 280.771 344.561 283.256C344.561 295.584 352.201 300.584 369.842 308.256L380.123 312.662C415.061 327.646 434.811 342.912 434.811 377.24C434.811 414.255 405.732 434.537 366.686 434.537C351.472 435.506 336.302 432.052 323.008 424.591C309.713 417.13 298.862 405.981 291.764 392.49L325.139 373.052ZM179.904 376.615C186.357 388.068 192.232 397.755 206.357 397.755C219.857 397.755 228.389 392.474 228.389 371.927V232.131H269.498V372.474C269.498 415.037 244.498 434.412 208.107 434.412C195.244 435.115 182.469 431.909 171.462 425.216C160.455 418.523 151.73 408.656 146.436 396.912L179.904 376.615Z" fill="black"/>
</g>
<defs>
<clipPath id="clip0_310_388">
<rect width="500" height="500" fill="white"/>
</clipPath>
</defs>
</svg>
